0
SECTION
2
HEADER
9
$INSUNITS
70
4
9
$ACADVER
1
AC1014
9
$HANDSEED
5
FFFF
0
ENDSEC
0
SECTION
2
TABLES
0
TABLE
2
VPORT
5
8
100
AcDbSymbolTable
0
ENDTAB
0
TABLE
2
LTYPE
5
5
100
AcDbSymbolTable
0
LTYPE
5
14
100
AcDbSymbolTableRecord
100
AcDbLinetypeTableRecord
2
BYBLOCK
70
0
0
LTYPE
5
15
100
AcDbSymbolTableRecord
100
AcDbLinetypeTableRecord
2
BYLAYER
70
0
0
LTYPE
5
16
100
AcDbSymbolTableRecord
100
AcDbLinetypeTableRecord
2
DASHED
70
0
3
Dashed __ __ __ __ __ __ __ __ __ __ __ __ __ _
72
65
73
2
40
0.75
49
0.5
74
0
49
-0.25
74
0
0
ENDTAB
0
TABLE
2
LAYER
5
2
100
AcDbSymbolTable
70
2
0
LAYER
5
50
100
AcDbSymbolTableRecord
100
AcDbLayerTableRecord
2
0
70
0
62
7
6
CONTINUOUS
0
ENDTAB
0
TABLE
2
STYLE
5
3
100
AcDbSymbolTable
70
1
0
STYLE
5
11
100
AcDbSymbolTableRecord
100
AcDbTextStyleTableRecord
2
STANDARD
70
0
0
ENDTAB
0
TABLE
2
VIEW
5
6
100
AcDbSymbolTable
70
0
0
ENDTAB
0
TABLE
2
UCS
5
7
100
AcDbSymbolTable
70
0
0
ENDTAB
0
TABLE
2
APPID
5
9
100
AcDbSymbolTable
70
2
0
APPID
5
12
100
AcDbSymbolTableRecord
100
AcDbRegAppTableRecord
2
ACAD
70
0
0
ENDTAB
0
TABLE
2
DIMSTYLE
5
A
100
AcDbSymbolTable
70
1
0
ENDTAB
0
TABLE
2
BLOCK_RECORD
5
1
100
AcDbSymbolTable
70
1
0
BLOCK_RECORD
5
1F
100
AcDbSymbolTableRecord
100
AcDbBlockTableRecord
2
*MODEL_SPACE
0
BLOCK_RECORD
5
1B
100
AcDbSymbolTableRecord
100
AcDbBlockTableRecord
2
*PAPER_SPACE
0
ENDTAB
0
ENDSEC
0
SECTION
2
BLOCKS
0
BLOCK
5
20
100
AcDbEntity
100
AcDbBlockBegin
2
*MODEL_SPACE
0
ENDBLK
5
21
100
AcDbEntity
100
AcDbBlockEnd
0
BLOCK
5
1C
100
AcDbEntity
100
AcDbBlockBegin
2
*PAPER_SPACE
0
ENDBLK
5
1D
100
AcDbEntity
100
AcDbBlockEnd
0
ENDSEC
0
SECTION
2
ENTITIES
0
LINE
5
100
100
AcDbEntity
8
0
100
AcDbLine
10
13.57122168113321
20
144.63152224389654
30
0
11
13.57122168113321
21
144.63152224389654
31
0
0
CIRCLE
5
101
100
AcDbEntity
8
0
100
AcDbCircle
10
52.644779660626071
20
3.1819805153394674
30
0
40
1.05
210
0
220
-0
230
1
0
CIRCLE
5
102
100
AcDbEntity
8
0
100
AcDbCircle
10
55.826760175965532
20
1.4270745637894382e-15
30
0
40
2.2500000000000004
210
0
220
-0
230
1
0
SPLINE
5
103
100
AcDbEntity
8
0
100
AcDbSpline
70
4
71
5
72
26
73
20
74
0
42
0.000000001
43
0.0000000001
44
0.0000000001
40
0
40
0
40
0
40
0
40
0
40
0
40
0.066666666666666666
40
0.13333333333333333
40
0.20000000000000001
40
0.26666666666666666
40
0.33333333333333331
40
0.39999999999999997
40
0.46666666666666662
40
0.53333333333333333
40
0.59999999999999998
40
0.66666666666666663
40
0.73333333333333328
40
0.79999999999999993
40
0.86666666666666659
40
0.93333333333333324
40
1
40
1
40
1
40
1
40
1
40
1
41
1
41
1
41
1
41
1
41
1
41
1
41
1
41
1
41
1
41
1
41
1
41
1
41
1
41
1
41
1
41
1
41
1
41
1
41
1
41
1
10
60.950505826877674
20
3.5756190705668049e-15
30
0
10
60.950505826877674
20
-0.15396861475465334
30
0
10
60.950156306449152
20
-0.46097402588862624
30
0
10
60.948560926553398
20
-0.91870430226589817
30
0
10
60.952620554276386
20
-1.5107263511898723
30
0
10
61.007799452918896
20
-2.1536673403099544
30
0
10
61.155369401089608
20
-2.6216200529740368
30
0
10
61.412622308734356
20
-2.8577251602350495
30
0
10
61.767904492235921
20
-2.8397507578885008
30
0
10
62.11736674955479
20
-2.6421359880264288
30
0
10
62.395419504675331
20
-2.3435909247338218
30
0
10
62.593132917964702
20
-1.9964717205418359
30
0
10
62.724236804305995
20
-1.640351244596254
30
0
10
62.815845524976488
20
-1.2970914588896458
30
0
10
62.886296390874818
20
-0.97242478191880233
30
0
10
62.940491562527292
20
-0.65824748775293651
30
0
10
62.969360034961909
20
-0.40416745939832127
30
0
10
62.980649391026439
20
-0.20587928655411508
30
0
10
62.983158754355408
20
-0.069349593103263912
30
0
10
62.983158754355408
20
4.3957620951306281e-15
30
0
0
SPLINE
5
104
100
AcDbEntity
8
0
100
AcDbSpline
70
4
71
5
72
41
73
35
74
0
42
0.000000001
43
0.0000000001
44
0.0000000001
40
0
40
0
40
0
40
0
40
0
40
0
40
0.033333333333333333
40
0.066666666666666666
40
0.10000000000000001
40
0.13333333333333333
40
0.16666666666666666
40
0.19999999999999998
40
0.23333333333333331
40
0.26666666666666666
40
0.29999999999999999
40
0.33333333333333331
40
0.36666666666666664
40
0.39999999999999997
40
0.43333333333333329
40
0.46666666666666662
40
0.49999999999999994
40
0.53333333333333333
40
0.56666666666666665
40
0.59999999999999998
40
0.6333333333333333
40
0.66666666666666663
40
0.69999999999999996
40
0.73333333333333328
40
0.76666666666666661
40
0.79999999999999993
40
0.83333333333333326
40
0.86666666666666659
40
0.89999999999999991
40
0.93333333333333324
40
0.96666666666666656
40
1
40
1
40
1
40
1
40
1
40
1
41
1
41
1
41
1
41
1
41
1
41
1
41
1
41
1
41
1
41
1
41
1
41
1
41
1
41
1
41
1
41
1
41
1
41
1
41
1
41
1
41
1
41
1
41
1
41
1
41
1
41
1
41
1
41
1
41
1
41
1
41
1
41
1
41
1
41
1
41
1
10
64.574602860704772
20
5.0953147019985549e-15
30
0
10
64.572644463814697
20
0.038801273058780068
30
0
10
64.562797840938202
20
0.142773459108918
30
0
10
64.53023885778363
20
0.37783779391007732
30
0
10
64.452884446346587
20
0.82875833998726578
30
0
10
64.306542825865222
20
1.5112604028608536
30
0
10
64.114889494906308
20
2.1889937012137075
30
0
10
63.874436302956639
20
2.7690897611212062
30
0
10
63.568116478980166
20
3.2364523392086153
30
0
10
63.173128766868658
20
3.6258512018074134
30
0
10
62.669810899305759
20
3.9894676074096598
30
0
10
62.04930623874958
20
4.3691660159566323
30
0
10
61.323953865573102
20
4.7596612245475649
30
0
10
60.52416696238258
20
5.1169276241950579
30
0
10
59.69032908601244
20
5.3829547928787953
30
0
10
58.866345512331662
20
5.5059036055687898
30
0
10
58.092711578426204
20
5.4602863495877996
30
0
10
57.399408485678237
20
5.2718950349138733
30
0
10
56.799919193716931
20
5.0266276826872325
30
0
10
56.2882120739295
20
4.8293632400378588
30
0
10
55.835910493716874
20
4.771598717366202
30
0
10
55.387421001627324
20
4.896087963503402
30
0
10
54.859690339126963
20
5.1611431335268652
30
0
10
54.173661709620291
20
5.4706257107581742
30
0
10
53.317512662365765
20
5.7034170876112888
30
0
10
52.338087962843517
20
5.7462592597049973
30
0
10
51.503009864601601
20
5.5171836697752221
30
0
10
50.992421682191484
20
5.0159788846937925
30
0
10
50.690733077043078
20
4.3148556194679388
30
0
10
50.363933985849386
20
3.5275771653609089
30
0
10
49.689121240618874
20
2.7872012885593915
30
0
10
48.614752792386426
20
2.3337461419106695
30
0
10
47.394545616472499
20
2.1149807799638904
30
0
10
46.382460640846254
20
2.0284424950039703
30
0
10
45.826760175965518
20
2.0000000000000018
30
0
0
CIRCLE
5
105
100
AcDbEntity
8
0
100
AcDbCircle
10
12.75000000000002
20
12.749999999999995
30
0
40
1.0499999999999998
210
0
220
0
230
1
0
CIRCLE
5
106
100
AcDbEntity
8
0
100
AcDbCircle
10
12.75000000000002
20
-12.750000000000007
30
0
40
1.05
210
0
220
0
230
1
0
LINE
5
107
100
AcDbEntity
8
0
100
AcDbLine
10
17.811227434275548
20
-7.2130103240558343
30
0
11
25.827283735527843
21
-15.229066625379279
31
0
0
CIRCLE
5
108
100
AcDbEntity
8
0
100
AcDbCircle
10
-12.750000000000005
20
12.750000000000018
30
0
40
1.05
210
0
220
0
230
1
0
SPLINE
5
109
100
AcDbEntity
8
0
100
AcDbSpline
70
4
71
5
72
26
73
20
74
0
42
0.000000001
43
0.0000000001
44
0.0000000001
40
0
40
0
40
0
40
0
40
0
40
0
40
0.066666666666666666
40
0.13333333333333333
40
0.20000000000000001
40
0.26666666666666666
40
0.33333333333333331
40
0.39999999999999997
40
0.46666666666666662
40
0.53333333333333333
40
0.59999999999999998
40
0.66666666666666663
40
0.73333333333333328
40
0.79999999999999993
40
0.86666666666666659
40
0.93333333333333324
40
1
40
1
40
1
40
1
40
1
40
1
41
1
41
1
41
1
41
1
41
1
41
1
41
1
41
1
41
1
41
1
41
1
41
1
41
1
41
1
41
1
41
1
41
1
41
1
41
1
41
1
10
60.950505826877674
20
3.5756190705668049e-15
30
0
10
60.950505826877674
20
0.15396861475466064
30
0
10
60.950156306449124
20
0.46097402588863357
30
0
10
60.948560926553277
20
0.91870430226590405
30
0
10
60.952620554276052
20
1.5107263511898728
30
0
10
61.007799452918391
20
2.1536673403099487
30
0
10
61.155369401089189
20
2.6216200529740332
30
0
10
61.412622308734356
20
2.8577251602350584
30
0
10
61.767904492235957
20
2.8397507578885128
30
0
10
62.11736674955462
20
2.6421359880264337
30
0
10
62.395419504675047
20
2.34359092473382
30
0
10
62.59313291796456
20
1.9964717205418365
30
0
10
62.724236804305953
20
1.6403512445962596
30
0
10
62.815845524976552
20
1.2970914588896605
30
0
10
62.88629639087479
20
0.97242478191881676
30
0
10
62.940491562527249
20
0.65824748775294972
30
0
10
62.969360034961895
20
0.40416745939833182
30
0
10
62.980649391026439
20
0.20587928655412427
30
0
10
62.983158754355408
20
0.069349593103272739
30
0
10
62.983158754355408
20
4.395762038930706e-15
30
0
0
CIRCLE
5
110
100
AcDbEntity
8
0
100
AcDbCircle
10
52.644779660626064
20
-3.1819805153394567
30
0
40
1.05
210
0
220
0
230
1
0
CIRCLE
5
111
100
AcDbEntity
8
0
100
AcDbCircle
10
59.008740691304986
20
-3.1819805153394656
30
0
40
1.05
210
0
220
0
230
1
0
CIRCLE
5
112
100
AcDbEntity
8
0
100
AcDbCircle
10
59.008740691304993
20
3.1819805153394585
30
0
40
1.05
210
0
220
0
230
1
0
SPLINE
5
113
100
AcDbEntity
8
0
100
AcDbSpline
70
4
71
5
72
41
73
35
74
0
42
0.000000001
43
0.0000000001
44
0.0000000001
40
0
40
0
40
0
40
0
40
0
40
0
40
0.033333333333333333
40
0.066666666666666666
40
0.10000000000000001
40
0.13333333333333333
40
0.16666666666666666
40
0.19999999999999998
40
0.23333333333333331
40
0.26666666666666666
40
0.29999999999999999
40
0.33333333333333331
40
0.36666666666666664
40
0.39999999999999997
40
0.43333333333333329
40
0.46666666666666662
40
0.49999999999999994
40
0.53333333333333333
40
0.56666666666666665
40
0.59999999999999998
40
0.6333333333333333
40
0.66666666666666663
40
0.69999999999999996
40
0.73333333333333328
40
0.76666666666666661
40
0.79999999999999993
40
0.83333333333333326
40
0.86666666666666659
40
0.89999999999999991
40
0.93333333333333324
40
0.96666666666666656
40
1
40
1
40
1
40
1
40
1
40
1
41
1
41
1
41
1
41
1
41
1
41
1
41
1
41
1
41
1
41
1
41
1
41
1
41
1
41
1
41
1
41
1
41
1
41
1
41
1
41
1
41
1
41
1
41
1
41
1
41
1
41
1
41
1
41
1
41
1
41
1
41
1
41
1
41
1
41
1
41
1
10
64.574602860704772
20
4.6704564107152669e-15
30
0
10
64.572644463814697
20
-0.038801273058770298
30
0
10
64.562797840938188
20
-0.14277345910890654
30
0
10
64.530238857783601
20
-0.37783779391005806
30
0
10
64.452884446346516
20
-0.82875833998723647
30
0
10
64.306542825865137
20
-1.511260402860829
30
0
10
64.114889494906279
20
-2.1889937012136946
30
0
10
63.874436302956809
20
-2.7690897611212173
30
0
10
63.568116478980414
20
-3.2364523392086437
30
0
10
63.173128766868885
20
-3.6258512018074454
30
0
10
62.669810899305816
20
-3.9894676074096642
30
0
10
62.049306238749423
20
-4.3691660159565933
30
0
10
61.323953865572811
20
-4.7596612245474894
30
0
10
60.524166962382317
20
-5.1169276241949726
30
0
10
59.690329086012255
20
-5.3829547928787296
30
0
10
58.866345512331641
20
-5.5059036055687569
30
0
10
58.092711578426233
20
-5.460286349587804
30
0
10
57.399408485678265
20
-5.2718950349138929
30
0
10
56.799919193716988
20
-5.0266276826872547
30
0
10
56.288212073929571
20
-4.829363240037873
30
0
10
55.835910493716881
20
-4.7715987173661931
30
0
10
55.387421001627246
20
-4.8960879635033763
30
0
10
54.859690339126814
20
-5.1611431335268323
30
0
10
54.173661709620248
20
-5.4706257107581564
30
0
10
53.317512662365786
20
-5.7034170876112853
30
0
10
52.33808796284351
20
-5.7462592597049964
30
0
10
51.503009864601594
20
-5.5171836697752186
30
0
10
50.992421682191555
20
-5.0159788846937827
30
0
10
50.690733077043262
20
-4.3148556194679246
30
0
10
50.363933985849556
20
-3.5275771653608947
30
0
10
49.689121240618988
20
-2.7872012885593795
30
0
10
48.614752792386454
20
-2.333746141910662
30
0
10
47.394545616472506
20
-2.1149807799638856
30
0
10
46.382460640846254
20
-2.0284424950039668
30
0
10
45.826760175965518
20
-1.9999999999999984
30
0
0
CIRCLE
5
114
100
AcDbEntity
8
0
100
AcDbCircle
10
24.059516195045155
20
-16.996832991068274
30
0
40
1.0000000000000009
210
0
220
0
230
1
0
CIRCLE
5
115
100
AcDbEntity
8
0
100
AcDbCircle
10
-12.750000000000005
20
12.750000000000018
30
0
40
1.05
210
0
220
0
230
1
0
CIRCLE
5
116
100
AcDbEntity
8
0
100
AcDbCircle
10
-12.750000000000011
20
12.750000000000023
30
0
40
1.05
210
0
220
0
230
1
0
CIRCLE
5
117
100
AcDbEntity
8
0
100
AcDbCircle
10
16.996832991068288
20
-24.059516195045134
30
0
40
1.0000000000000009
210
0
220
0
230
1
0
CIRCLE
5
118
100
AcDbEntity
8
0
100
AcDbCircle
10
12.75000000000002
20
-12.750000000000007
30
0
40
1.05
210
0
220
0
230
1
0
LINE
5
119
100
AcDbEntity
8
0
100
AcDbLine
10
7.2130103240558476
20
-17.811227434275533
30
0
11
15.229066625379286
21
-25.827283735527821
31
0
0
CIRCLE
5
120
100
AcDbEntity
8
0
100
AcDbCircle
10
-9.3912427893639148
20
20.351397897755405
30
0
40
1.0499999999999998
210
0
220
0
230
1
0
CIRCLE
5
121
100
AcDbEntity
8
0
100
AcDbCircle
10
-20.351397897755398
20
9.3912427893639148
30
0
40
1.0499999999999998
210
0
220
0
230
1
0
LINE
5
122
100
AcDbEntity
8
0
100
AcDbLine
10
-19.11396103067894
20
29.013455967290611
30
0
11
-29.013455967290611
21
19.113961030678936
31
0
0
LINE
5
123
100
AcDbEntity
8
0
100
AcDbLine
10
-19.11396103067894
20
29.013455967290611
30
0
11
-17.121571634495446
21
29.18776745278592
31
0
0
LINE
5
124
100
AcDbEntity
8
0
100
AcDbLine
10
-17.121571634495446
20
29.18776745278592
30
0
11
-11.250517708010008
21
23.316713526300457
31
0
0
SPLINE
5
125
100
AcDbEntity
8
0
100
AcDbSpline
70
4
71
5
72
16
73
10
74
0
42
0.000000001
43
0.0000000001
44
0.0000000001
40
0
40
0
40
0
40
0
40
0
40
0
40
0.20000000000000001
40
0.40000000000000002
40
0.60000000000000009
40
0.80000000000000004
40
1
40
1
40
1
40
1
40
1
40
1
41
1
41
1
41
1
41
1
41
1
41
1
41
1
41
1
41
1
41
1
10
-11.250517708010008
20
23.316713526300457
30
0
10
-11.211276319496807
20
23.277472137787253
30
0
10
-11.101630813685475
20
23.20972098559157
30
0
10
-10.843765364728613
20
23.140256436519682
30
0
10
-10.344886291120208
20
23.099856887519131
30
0
10
-9.5914971938120868
20
23.084425271201585
30
0
10
-8.987202834966828
20
23.05566156752931
30
0
10
-8.5799262710115354
20
23.002689167774765
30
0
10
-8.3359173531804593
20
22.949769184290311
30
0
10
-8.2207981892010711
20
22.918903261035545
30
0
0
ARC
5
126
100
AcDbEntity
8
0
100
AcDbCircle
10
12.749996447199228
20
12.750003255371691
30
0
40
2.2500065759412418
210
0
220
0
230
1
100
AcDbArc
50
224.99838847018887
51
225.00185663903446
0
ARC
5
127
100
AcDbEntity
8
0
100
AcDbCircle
10
12.749996447199228
20
12.750003255371693
30
0
40
2.2499971689751943
210
0
220
0
230
1
100
AcDbArc
50
-25.000081271293642
51
114.99996727608605
0
ARC
5
128
100
AcDbEntity
8
0
100
AcDbCircle
10
-12.749999516316965
20
-12.749999516316953
30
0
40
2.2500066919242077
210
0
220
-0
230
1
100
AcDbArc
50
44.9981152695022
51
45.001651739935745
0
SPLINE
5
129
100
AcDbEntity
8
0
100
AcDbSpline
70
6
71
5
72
26
73
20
74
0
42
0.000000001
43
0.0000000001
44
0.0000000001
40
0
40
0
40
0
40
0
40
0
40
0
40
0.066666666666666666
40
0.13333333333333333
40
0.20000000000000001
40
0.26666666666666666
40
0.33333333333333331
40
0.39999999999999997
40
0.46666666666666662
40
0.53333333333333333
40
0.59999999999999998
40
0.66666666666666663
40
0.73333333333333328
40
0.79999999999999993
40
0.86666666666666659
40
0.93333333333333324
40
1
40
1
40
1
40
1
40
1
40
1
41
1
41
1
41
1
41
1
41
1
41
1
41
1
41
1
41
1
41
1
41
1
41
1
41
1
41
1
41
1
41
1
41
1
41
1
41
1
41
1
10
14.494771307447863
20
-2.1075901067568332
30
0
10
14.343355061029015
20
-1.9605000388070963
30
0
10
13.936160008477877
20
-1.7404809475098546
30
0
10
12.916066750281052
20
-1.5760043761737972
30
0
10
10.445931796769866
20
-1.3763621844335212
30
0
10
6.8866557811590994
20
-1.314026098682344
30
0
10
4.3751072458750402
20
-1.6485660854844308
30
0
10
4.2692258682559299
20
-2.6711607346334376
30
0
10
6.0610661529292393
20
-4.2400701032835322
30
0
10
7.9751705844341014
20
-5.888003951604464
30
0
10
9.7513596732393761
20
-7.4341827027357441
30
0
10
11.332925833056215
20
-8.6899898682982837
30
0
10
12.883508283413288
20
-9.4303114233228928
30
0
10
14.370499802097449
20
-9.3367346327842995
30
0
10
15.020459533828603
20
-7.7190661311310027
30
0
10
15.077806728975812
20
-5.267014680042891
30
0
10
14.925487707766811
20
-3.4549473279644167
30
0
10
14.844657486990975
20
-2.6230213552082775
30
0
10
14.64618755386671
20
-2.2546801747065701
30
0
10
14.494771307447863
20
-2.1075901067568332
30
0
0
SPLINE
5
130
100
AcDbEntity
8
0
100
AcDbSpline
70
4
71
5
72
21
73
15
74
0
42
0.000000001
43
0.0000000001
44
0.0000000001
40
0
40
0
40
0
40
0
40
0
40
0
40
0.10000000000000001
40
0.20000000000000001
40
0.30000000000000004
40
0.40000000000000002
40
0.5
40
0.59999999999999998
40
0.69999999999999996
40
0.79999999999999993
40
0.89999999999999991
40
1
40
1
40
1
40
1
40
1
40
1
41
1
41
1
41
1
41
1
41
1
41
1
41
1
41
1
41
1
41
1
41
1
41
1
41
1
41
1
41
1
10
45.826760175965518
20
2.0000000000000018
30
0
10
44.613204528580255
20
2.0557035767789396
30
0
10
42.231717290568639
20
2.1543968566020104
30
0
10
38.796373253059471
20
2.2643050749590246
30
0
10
34.487919759385996
20
2.3406551862716634
30
0
10
29.564962252082761
20
2.3647037926305527
30
0
10
25.140077181680024
20
2.3945531095932076
30
0
10
21.292326474997246
20
2.5458386747579209
30
0
10
18.136555130658351
20
2.9739693072713989
30
0
10
15.858229194298428
20
3.892382954768852
30
0
10
14.634043987950577
20
5.5534500865743199
30
0
10
14.365325722613608
20
7.577092539393858
30
0
10
14.472587974601925
20
9.5202295638768533
30
0
10
14.663685690465492
20
11.007491469422355
30
0
10
14.78919375351529
20
11.79910771938863
30
0
0
SPLINE
5
131
100
AcDbEntity
8
0
100
AcDbSpline
70
4
71
5
72
21
73
15
74
0
42
0.000000001
43
0.0000000001
44
0.0000000001
40
0
40
0
40
0
40
0
40
0
40
0
40
0.10000000000000001
40
0.20000000000000001
40
0.30000000000000004
40
0.40000000000000002
40
0.5
40
0.59999999999999998
40
0.69999999999999996
40
0.79999999999999993
40
0.89999999999999991
40
1
40
1
40
1
40
1
40
1
40
1
41
1
41
1
41
1
41
1
41
1
41
1
41
1
41
1
41
1
41
1
41
1
41
1
41
1
41
1
41
1
10
45.826760175965518
20
-1.9999999999999984
30
0
10
44.827192778191993
20
-1.9793313681424767
30
0
10
42.838035187880394
20
-1.9405801113438514
30
0
10
39.884233721524382
20
-1.8902122177119614
30
0
10
36.026212136931733
20
-1.844397612916655
30
0
10
31.461402921189414
20
-1.8579608000797385
30
0
10
27.322243322887907
20
-1.9904325612285403
30
0
10
23.791212227822935
20
-2.2944880843960944
30
0
10
21.031494186194525
20
-2.8180292747819586
30
0
10
19.143535984710351
20
-3.5921440789357959
30
0
10
18.111488306706431
20
-4.6162105724699884
30
0
10
17.803522545703373
20
-5.5924623126058659
30
0
10
17.752719557318436
20
-6.3838031254979022
30
0
10
17.78131637030241
20
-6.933002146597488
30
0
10
17.811227434275548
20
-7.2130103240558343
30
0
0
CIRCLE
5
132
100
AcDbEntity
8
0
100
AcDbCircle
10
3.1819805153394443
20
64.314951950751563
30
0
40
0.8778175077423418
210
0
220
0
230
1
0
SPLINE
5
133
100
AcDbEntity
8
0
100
AcDbSpline
70
4
71
5
72
41
73
35
74
0
42
0.000000001
43
0.0000000001
44
0.0000000001
40
0
40
0
40
0
40
0
40
0
40
0
40
0.033333333333333333
40
0.066666666666666666
40
0.10000000000000001
40
0.13333333333333333
40
0.16666666666666666
40
0.19999999999999998
40
0.23333333333333331
40
0.26666666666666666
40
0.29999999999999999
40
0.33333333333333331
40
0.36666666666666664
40
0.39999999999999997
40
0.43333333333333329
40
0.46666666666666662
40
0.49999999999999994
40
0.53333333333333333
40
0.56666666666666665
40
0.59999999999999998
40
0.6333333333333333
40
0.66666666666666663
40
0.69999999999999996
40
0.73333333333333328
40
0.76666666666666661
40
0.79999999999999993
40
0.83333333333333326
40
0.86666666666666659
40
0.89999999999999991
40
0.93333333333333324
40
0.96666666666666656
40
1
40
1
40
1
40
1
40
1
40
1
41
1
41
1
41
1
41
1
41
1
41
1
41
1
41
1
41
1
41
1
41
1
41
1
41
1
41
1
41
1
41
1
41
1
41
1
41
1
41
1
41
1
41
1
41
1
41
1
41
1
41
1
41
1
41
1
41
1
41
1
41
1
41
1
41
1
41
1
41
1
10
-1.8290792116306799e-14
20
69.880814057844603
30
0
10
-0.038790708933893941
20
69.878856194154565
30
0
10
-0.14272693622984567
20
69.869013699187235
30
0
10
-0.37769278937289186
20
69.836470102036373
30
0
10
-0.82841724362221858
20
69.759153188577528
30
0
10
-1.5106783325747062
20
69.612883116062179
30
0
10
-2.1882814761960452
20
69.421326762947842
30
0
10
-2.7683777179444342
20
69.181010207480938
30
0
10
-3.2357831266996406
20
68.874892122441366
30
0
10
-3.6251794339565455
20
68.480187219607359
30
0
10
-3.9886846507181883
20
67.977234745635599
30
0
10
-4.3681848008593933
20
67.357152133018275
30
0
10
-4.7585365427343431
20
66.632219921452048
30
0
10
-5.1158341034380079
20
65.832800215721605
30
0
10
-5.3821559556128529
20
64.999230759188208
30
0
10
-5.5056632202218694
20
64.175386687273573
30
0
10
-5.4607710324230396
20
63.401751524476595
30
0
10
-5.2729739285347588
20
62.708325672704071
30
0
10
-5.027875123246897
20
62.108629820371839
30
0
10
-4.8302071754113429
20
61.596708571801287
30
0
10
-4.77148921410339
20
61.14428679612115
30
0
10
-4.8948285648793499
20
60.695969901784082
30
0
10
-5.1590883475951523
20
60.168849069215689
30
0
10
-5.4685458060752365
20
59.483837377651085
30
0
10
-5.7022576360619954
20
58.628791345369635
30
0
10
-5.7468531954979802
20
57.65023039931318
30
0
10
-5.5195664002143392
20
56.814537375087241
30
0
10
-5.0192446176082584
20
56.304210026290406
30
0
10
-4.3180085088579796
20
56.003969123918871
30
0
10
-3.5298215430589144
20
55.679947937177168
30
0
10
-2.7882308714007071
20
55.008780510124126
30
0
10
-2.3339935826491547
20
53.937579730833164
30
0
10
-2.1149574980365107
20
52.71964548721526
30
0
10
-2.0284067242733572
20
51.708997533704959
30
0
10
-1.999999999999994
20
51.153995946036787
30
0
0
CIRCLE
5
134
100
AcDbEntity
8
0
100
AcDbCircle
10
-3.18198051533947
20
57.950990920072641
30
0
40
1.05
210
0
220
0
230
1
0
SPLINE
5
135
100
AcDbEntity
8
0
100
AcDbSpline
70
4
71
5
72
26
73
20
74
0
42
0.000000001
43
0.0000000001
44
0.0000000001
40
0
40
0
40
0
40
0
40
0
40
0
40
0.066666666666666666
40
0.13333333333333333
40
0.20000000000000001
40
0.26666666666666666
40
0.33333333333333331
40
0.39999999999999997
40
0.46666666666666662
40
0.53333333333333333
40
0.59999999999999998
40
0.66666666666666663
40
0.73333333333333328
40
0.79999999999999993
40
0.86666666666666659
40
0.93333333333333324
40
1
40
1
40
1
40
1
40
1
40
1
41
1
41
1
41
1
41
1
41
1
41
1
41
1
41
1
41
1
41
1
41
1
41
1
41
1
41
1
41
1
41
1
41
1
41
1
41
1
41
1
10
-8.994078719083573e-15
20
66.256717104623021
30
0
10
-0.15396861526864347
20
66.256717104623021
30
0
10
-0.46097402739060755
20
66.25636758379062
30
0
10
-0.91870430512933687
20
66.254772202071749
30
0
10
-1.5107263555418049
20
66.258831825924744
30
0
10
-2.1536673454945459
20
66.314010721489581
30
0
10
-2.621620057522871
20
66.461580672358821
30
0
10
-2.8577251623033213
20
66.718833587767264
30
0
10
-2.8397507559911799
20
67.074115780120408
30
0
10
-2.6421359810757346
20
67.423578026464369
30
0
10
-2.3435909118415368
20
67.701630755410974
30
0
10
-1.9964717037113353
20
67.899344149454009
30
0
10
-1.6403512282581842
20
68.030448048037627
30
0
10
-1.2970914488230247
20
68.122056829447828
30
0
10
-0.97242478193148729
20
68.192507797879429
30
0
10
-0.65824749690095397
20
68.246703084599943
30
0
10
-0.40416747068512365
20
68.275571630093836
30
0
10
-0.20587929440854136
20
68.286861015796603
30
0
10
-0.069349596142616793
20
68.289370385712857
30
0
10
-1.8108584946189848e-14
20
68.289370385712857
30
0
0
SPLINE
5
136
100
AcDbEntity
8
0
100
AcDbSpline
70
4
71
5
72
41
73
35
74
0
42
0.000000001
43
0.0000000001
44
0.0000000001
40
0
40
0
40
0
40
0
40
0
40
0
40
0.033333333333333333
40
0.066666666666666666
40
0.10000000000000001
40
0.13333333333333333
40
0.16666666666666666
40
0.19999999999999998
40
0.23333333333333331
40
0.26666666666666666
40
0.29999999999999999
40
0.33333333333333331
40
0.36666666666666664
40
0.39999999999999997
40
0.43333333333333329
40
0.46666666666666662
40
0.49999999999999994
40
0.53333333333333333
40
0.56666666666666665
40
0.59999999999999998
40
0.6333333333333333
40
0.66666666666666663
40
0.69999999999999996
40
0.73333333333333328
40
0.76666666666666661
40
0.79999999999999993
40
0.83333333333333326
40
0.86666666666666659
40
0.89999999999999991
40
0.93333333333333324
40
0.96666666666666656
40
1
40
1
40
1
40
1
40
1
40
1
41
1
41
1
41
1
41
1
41
1
41
1
41
1
41
1
41
1
41
1
41
1
41
1
41
1
41
1
41
1
41
1
41
1
41
1
41
1
41
1
41
1
41
1
41
1
41
1
41
1
41
1
41
1
41
1
41
1
41
1
41
1
41
1
41
1
41
1
41
1
10
-5.272237223043081e-16
20
69.880814057844532
30
0
10
0.038811832414482127
20
69.878855127999799
30
0
10
0.14281996519169471
20
69.869004383099636
30
0
10
0.37798275638045553
20
69.836430038918607
30
0
10
0.82909933611939601
20
69.7590381876864
30
0
10
1.5118422469433803
20
69.612625092399739
30
0
10
2.1897055246352557
20
69.420874816853328
30
0
10
2.7698013160283224
20
69.180284948410389
30
0
10
3.2371211269181384
20
68.873763302894105
30
0
10
3.6265227187904436
20
68.478492727817681
30
0
10
3.9902505202797984
20
67.97480951130477
30
0
10
4.370147103594892
20
67.353883046502148
30
0
10
4.760785278948072
20
66.628110925072662
30
0
10
5.1180197083950816
20
65.827957304296817
30
0
10
5.3837512836478183
20
64.993851445532897
30
0
10
5.5061410046184323
20
64.169728672327977
30
0
10
5.4597988693128947
20
63.396096080099717
30
0
10
5.2708150898152075
20
62.7029157234862
30
0
10
5.0253819509008952
20
62.103632992243398
30
0
10
4.8285239246054861
20
61.592140067358358
30
0
10
4.7717147977511454
20
61.139958612074842
30
0
10
4.8973525394312531
20
60.691295796772494
30
0
10
5.1631987159652848
20
60.1629535757382
30
0
10
5.4727001023238175
20
59.475907028206066
30
0
10
5.7045657384812385
20
58.618651676757821
30
0
10
5.7456522608013199
20
57.638367800072281
30
0
10
5.5147962508846362
20
56.803901554567773
30
0
10
5.0127159789365034
20
56.29304582464168
30
0
10
4.3117098772179716
20
55.989908273346849
30
0
10
3.525339867362582
20
55.660334295240617
30
0
10
2.7861759614908443
20
54.98188194125887
30
0
10
2.3335002740925819
20
53.904349326547134
30
0
10
2.1150044158231833
20
52.681869760606723
30
0
10
2.0284783011683731
20
51.66834695917494
30
0
10
2.0000000000000062
20
51.111946924787411
30
0
0
SPLINE
5
137
100
AcDbEntity
8
0
100
AcDbSpline
70
4
71
5
72
21
73
15
74
0
42
0.000000001
43
0.0000000001
44
0.0000000001
40
0
40
0
40
0
40
0
40
0
40
0
40
0.10000000000000001
40
0.20000000000000001
40
0.30000000000000004
40
0.40000000000000002
40
0.5
40
0.59999999999999998
40
0.69999999999999996
40
0.79999999999999993
40
0.89999999999999991
40
1
40
1
40
1
40
1
40
1
40
1
41
1
41
1
41
1
41
1
41
1
41
1
41
1
41
1
41
1
41
1
41
1
41
1
41
1
41
1
41
1
10
-1.999999999999994
20
51.153995946036787
30
0
10
-1.9763308217294902
20
48.832178862810466
30
0
10
-1.9405184244668483
20
44.492019250907248
30
0
10
-1.9213762866230322
20
38.892150441558286
30
0
10
-1.967040033740153
20
33.161795770424625
30
0
10
-2.1564639051491867
20
28.437920544524307
30
0
10
-2.4980756860310991
20
25.588451234458979
30
0
10
-3.0137379449255084
20
24.036050756828743
30
0
10
-3.7219917207722792
20
23.262032499357264
30
0
10
-4.6290035168007906
20
22.869298416271121
30
0
10
-5.7197211654044366
20
22.629002261247653
30
0
10
-6.6938105776206864
20
22.575137889472209
30
0
10
-7.4510420898157372
20
22.679062502170769
30
0
10
-7.9630225706905922
20
22.826001859522162
30
0
10
-8.2207981892010711
20
22.918903261035545
30
0
0
CIRCLE
5
138
100
AcDbEntity
8
0
100
AcDbCircle
10
-3.1819805153394798
20
64.314951950751563
30
0
40
1.05
210
0
220
0
230
1
0
CIRCLE
5
139
100
AcDbEntity
8
0
100
AcDbCircle
10
3.1819805153394451
20
57.950990920072655
30
0
40
1.05
210
0
220
-0
230
1
0
SPLINE
5
140
100
AcDbEntity
8
0
100
AcDbSpline
70
4
71
5
72
26
73
20
74
0
42
0.000000001
43
0.0000000001
44
0.0000000001
40
0
40
0
40
0
40
0
40
0
40
0
40
0.066666666666666666
40
0.13333333333333333
40
0.20000000000000001
40
0.26666666666666666
40
0.33333333333333331
40
0.39999999999999997
40
0.46666666666666662
40
0.53333333333333333
40
0.59999999999999998
40
0.66666666666666663
40
0.73333333333333328
40
0.79999999999999993
40
0.86666666666666659
40
0.93333333333333324
40
1
40
1
40
1
40
1
40
1
40
1
41
1
41
1
41
1
41
1
41
1
41
1
41
1
41
1
41
1
41
1
41
1
41
1
41
1
41
1
41
1
41
1
41
1
41
1
41
1
41
1
10
-8.994078719083573e-15
20
66.256717104623021
30
0
10
0.15396861526862637
20
66.256717104623021
30
0
10
0.46097402739059168
20
66.256367583790649
30
0
10
0.918704305129321
20
66.254772202071791
30
0
10
1.5107263555417858
20
66.258831825924844
30
0
10
2.1536673454945197
20
66.314010721489652
30
0
10
2.6216200575228408
20
66.461580672358821
30
0
10
2.8577251623032907
20
66.718833587767307
30
0
10
2.8397507559911439
20
67.074115780120465
30
0
10
2.6421359810756866
20
67.423578026464384
30
0
10
2.3435909118414773
20
67.70163075541096
30
0
10
1.9964717037112765
20
67.899344149454066
30
0
10
1.6403512282581365
20
68.030448048037826
30
0
10
1.2970914488229888
20
68.122056829447828
30
0
10
0.97242478193145565
20
68.192507797879173
30
0
10
0.6582474969009211
20
68.246703084599574
30
0
10
0.40416747068508752
20
68.275571630093609
30
0
10
0.20587929440850428
20
68.286861015796632
30
0
10
0.069349596142580128
20
68.289370385712957
30
0
10
-1.8108584946189861e-14
20
68.289370385712957
30
0
0
SPLINE
5
141
100
AcDbEntity
8
0
100
AcDbSpline
70
4
71
5
72
21
73
15
74
0
42
0.000000001
43
0.0000000001
44
0.0000000001
40
0
40
0
40
0
40
0
40
0
40
0
40
0.10000000000000001
40
0.20000000000000001
40
0.30000000000000004
40
0.40000000000000002
40
0.5
40
0.59999999999999998
40
0.69999999999999996
40
0.79999999999999993
40
0.89999999999999991
40
1
40
1
40
1
40
1
40
1
40
1
41
1
41
1
41
1
41
1
41
1
41
1
41
1
41
1
41
1
41
1
41
1
41
1
41
1
41
1
41
1
10
2.0000000000000062
20
51.111946924787411
30
0
10
2.068187976232053
20
48.352135753090472
30
0
10
2.184565993053162
20
43.289510786072498
30
0
10
2.2991441854175907
20
37.066375496500171
30
0
10
2.3438469190406503
20
31.281527440881291
30
0
10
2.2952877591159817
20
27.021821781230969
30
0
10
2.2545808926955559
20
24.313199534606056
30
0
10
2.364344004077676
20
21.88527822712549
30
0
10
2.7927190445167827
20
19.044691263120484
30
0
10
3.7274770431511364
20
15.925215350116442
30
0
10
5.3679479187696284
20
14.34053221962518
30
0
10
7.4025485396054691
20
14.201611382087801
30
0
10
9.406312551406236
20
14.429935350615741
30
0
10
10.964457741347982
20
14.656861066436583
30
0
10
11.799108432010177
20
14.78919203929906
30
0
0
SPLINE
5
142
100
AcDbEntity
8
0
100
AcDbSpline
70
6
71
5
72
36
73
30
74
0
42
0.000000001
43
0.0000000001
44
0.0000000001
40
0
40
0
40
0
40
0
40
0
40
0
40
0.040000000000000001
40
0.080000000000000002
40
0.12
40
0.16
40
0.20000000000000001
40
0.24000000000000002
40
0.28000000000000003
40
0.32000000000000001
40
0.35999999999999999
40
0.39999999999999997
40
0.43999999999999995
40
0.47999999999999993
40
0.51999999999999991
40
0.55999999999999994
40
0.59999999999999998
40
0.64000000000000001
40
0.68000000000000005
40
0.72000000000000008
40
0.76000000000000012
40
0.80000000000000016
40
0.84000000000000019
40
0.88000000000000023
40
0.92000000000000026
40
0.9600000000000003
40
1
40
1
40
1
40
1
40
1
40
1
41
1
41
1
41
1
41
1
41
1
41
1
41
1
41
1
41
1
41
1
41
1
41
1
41
1
41
1
41
1
41
1
41
1
41
1
41
1
41
1
41
1
41
1
41
1
41
1
41
1
41
1
41
1
41
1
41
1
41
1
10
-2.112095399827858
20
4.1440172827653612
30
0
10
-1.9543091492272691
20
4.0526673482071258
30
0
10
-1.6974275707339248
20
3.9957634672186035
30
0
10
-1.4670746606846097
20
4.3315174686403282
30
0
10
-1.3297910543003553
20
5.7138414819716399
30
0
10
-1.3003057140181786
20
8.6008810541467113
30
0
10
-1.3033867311448395
20
11.998964626843181
30
0
10
-1.3230892354397472
20
15.137047710433365
30
0
10
-1.416122419701036
20
17.416621956818915
30
0
10
-1.686273222979334
20
18.487930184453457
30
0
10
-2.3597542704186414
20
18.775309779792543
30
0
10
-3.5287694483304692
20
18.78221677643775
30
0
10
-5.0571505128018153
20
18.588904271070085
30
0
10
-6.7291134453750558
20
18.210793279537011
30
0
10
-8.2927016163540639
20
17.603627029937314
30
0
10
-9.5707025974106017
20
16.864035509737022
30
0
10
-10.450453809245502
20
16.148134472968994
30
0
10
-10.885228600751217
20
15.556209565398756
30
0
10
-10.788752806301137
20
14.914902188855265
30
0
10
-10.191068939633539
20
13.817591278369274
30
0
10
-9.7140608994960314
20
12.754762699844129
30
0
10
-9.8623847387258508
20
12.224718313507374
30
0
10
-9.7226248582250037
20
11.653535971071264
30
0
10
-8.672873171462097
20
10.507518753137921
30
0
10
-6.8979767317015694
20
8.8163186145115837
30
0
10
-4.837237906858797
20
6.8121425311252519
30
0
10
-3.4027162887572127
20
5.3402729662976611
30
0
10
-2.6441450743374513
20
4.543863074567998
30
0
10
-2.269881650428446
20
4.2353672173235957
30
0
10
-2.112095399827858
20
4.1440172827653612
30
0
0
SPLINE
5
143
100
AcDbEntity
8
0
100
AcDbSpline
70
4
71
5
72
21
73
15
74
0
42
0.000000001
43
0.0000000001
44
0.0000000001
40
0
40
0
40
0
40
0
40
0
40
0
40
0.10000000000000001
40
0.20000000000000001
40
0.30000000000000004
40
0.40000000000000002
40
0.5
40
0.59999999999999998
40
0.69999999999999996
40
0.79999999999999993
40
0.89999999999999991
40
1
40
1
40
1
40
1
40
1
40
1
41
1
41
1
41
1
41
1
41
1
41
1
41
1
41
1
41
1
41
1
41
1
41
1
41
1
41
1
41
1
10
2.0000000000000164
20
-45.826760175965504
30
0
10
1.9793313681424944
20
-44.827192778191971
30
0
10
1.9405801113438639
20
-42.838035187880259
30
0
10
1.8902122177119525
20
-39.884233721523607
30
0
10
1.8443976129165893
20
-36.026212136930162
30
0
10
1.8579608000796008
20
-31.461402921187222
30
0
10
1.9904325612283744
20
-27.322243322885825
30
0
10
2.2944880843959599
20
-23.791212227821511
30
0
10
2.8180292747819005
20
-21.031494186193974
30
0
10
3.5921440789358168
20
-19.143535984710432
30
0
10
4.6162105724700551
20
-18.111488306706708
30
0
10
5.592462312605921
20
-17.803522545703512
30
0
10
6.3838031254979306
20
-17.752719557318454
30
0
10
6.9330021465975067
20
-17.781316370302399
30
0
10
7.2130103240558521
20
-17.811227434275537
30
0
0
SPLINE
5
144
100
AcDbEntity
8
0
100
AcDbSpline
70
4
71
5
72
21
73
15
74
0
42
0.000000001
43
0.0000000001
44
0.0000000001
40
0
40
0
40
0
40
0
40
0
40
0
40
0.10000000000000001
40
0.20000000000000001
40
0.30000000000000004
40
0.40000000000000002
40
0.5
40
0.59999999999999998
40
0.69999999999999996
40
0.79999999999999993
40
0.89999999999999991
40
1
40
1
40
1
40
1
40
1
40
1
41
1
41
1
41
1
41
1
41
1
41
1
41
1
41
1
41
1
41
1
41
1
41
1
41
1
41
1
41
1
10
-1.9999999999999778
20
-45.826760175965511
30
0
10
-2.0557035767789169
20
-44.613204528580248
30
0
10
-2.1543968566019895
20
-42.231717290568646
30
0
10
-2.2643050749590108
20
-38.796373253059492
30
0
10
-2.3406551862716505
20
-34.487919759386038
30
0
10
-2.3647037926305345
20
-29.564962252082793
30
0
10
-2.3945531095931889
20
-25.140077181680024
30
0
10
-2.5458386747579054
20
-21.292326474997225
30
0
10
-2.9739693072713886
20
-18.136555130658341
30
0
10
-3.8923829547688378
20
-15.858229194298424
30
0
10
-5.5534500865742888
20
-14.634043987950511
30
0
10
-7.5770925393938278
20
-14.365325722613541
30
0
10
-9.5202295638768355
20
-14.472587974601893
30
0
10
-11.007491469422341
20
-14.66368569046548
30
0
10
-11.799107719388617
20
-14.789193753515281
30
0
0
ARC
5
145
100
AcDbEntity
8
0
100
AcDbCircle
10
-12.75000325537169
20
-12.749996447199212
30
0
40
2.2499971689751903
210
0
220
0
230
1
100
AcDbArc
50
155.00003272391405
51
295.00008127129371
0
CIRCLE
5
146
100
AcDbEntity
8
0
100
AcDbCircle
10
-12.749999999999984
20
-12.750000000000007
30
0
40
1.0499999999999998
210
0
220
0
230
1
0
SPLINE
5
147
100
AcDbEntity
8
0
100
AcDbSpline
70
4
71
5
72
41
73
35
74
0
42
0.000000001
43
0.0000000001
44
0.0000000001
40
0
40
0
40
0
40
0
40
0
40
0
40
0.033333333333333333
40
0.066666666666666666
40
0.10000000000000001
40
0.13333333333333333
40
0.16666666666666666
40
0.19999999999999998
40
0.23333333333333331
40
0.26666666666666666
40
0.29999999999999999
40
0.33333333333333331
40
0.36666666666666664
40
0.39999999999999997
40
0.43333333333333329
40
0.46666666666666662
40
0.49999999999999994
40
0.53333333333333333
40
0.56666666666666665
40
0.59999999999999998
40
0.6333333333333333
40
0.66666666666666663
40
0.69999999999999996
40
0.73333333333333328
40
0.76666666666666661
40
0.79999999999999993
40
0.83333333333333326
40
0.86666666666666659
40
0.89999999999999991
40
0.93333333333333324
40
0.96666666666666656
40
1
40
1
40
1
40
1
40
1
40
1
41
1
41
1
41
1
41
1
41
1
41
1
41
1
41
1
41
1
41
1
41
1
41
1
41
1
41
1
41
1
41
1
41
1
41
1
41
1
41
1
41
1
41
1
41
1
41
1
41
1
41
1
41
1
41
1
41
1
41
1
41
1
41
1
41
1
41
1
41
1
10
1.6462861212869429e-14
20
-64.574602860704772
30
0
10
-0.038801273058758697
20
-64.572644463814697
30
0
10
-0.14277345910889827
20
-64.562797840938202
30
0
10
-0.37783779391006367
20
-64.530238857783587
30
0
10
-0.82875833998726378
20
-64.452884446346445
30
0
10
-1.5112604028608498
20
-64.306542825865037
30
0
10
-2.1889937012136826
20
-64.114889494906194
30
0
10
-2.769089761121164
20
-63.874436302957001
30
0
10
-3.2364523392085651
20
-63.568116478980954
30
0
10
-3.6258512018073774
20
-63.173128766869453
30
0
10
-3.9894676074096407
20
-62.669810899306057
30
0
10
-4.3691660159566066
20
-62.049306238748905
30
0
10
-4.759661224547509
20
-61.323953865571482
30
0
10
-5.1169276241949833
20
-60.524166962380619
30
0
10
-5.3829547928787269
20
-59.690329086010891
30
0
10
-5.5059036055687489
20
-58.866345512331087
30
0
10
-5.4602863495877907
20
-58.092711578426446
30
0
10
-5.2718950349138902
20
-57.399408485679018
30
0
10
-5.0266276826872591
20
-56.799919193717813
30
0
10
-4.829363240037873
20
-56.288212073930062
30
0
10
-4.7715987173661798
20
-55.835910493716831
30
0
10
-4.8960879635033585
20
-55.387421001626855
30
0
10
-5.1611431335268145
20
-54.859690339126452
30
0
10
-5.4706257107581386
20
-54.173661709620049
30
0
10
-5.7034170876112658
20
-53.317512662365722
30
0
10
-5.7462592597049769
20
-52.338087962843538
30
0
10
-5.517183669775191
20
-51.50300986460153
30
0
10
-5.0159788846937472
20
-50.992421682191448
30
0
10
-4.3148556194678864
20
-50.690733077043205
30
0
10
-3.5275771653608641
20
-50.363933985849641
30
0
10
-2.7872012885593578
20
-49.689121240619173
30
0
10
-2.3337461419106424
20
-48.614752792386554
30
0
10
-2.114980779963866
20
-47.394545616472527
30
0
10
-2.0284424950039464
20
-46.382460640846247
30
0
10
-1.9999999999999778
20
-45.826760175965511
30
0
0
SPLINE
5
148
100
AcDbEntity
8
0
100
AcDbSpline
70
4
71
5
72
41
73
35
74
0
42
0.000000001
43
0.0000000001
44
0.0000000001
40
0
40
0
40
0
40
0
40
0
40
0
40
0.033333333333333333
40
0.066666666666666666
40
0.10000000000000001
40
0.13333333333333333
40
0.16666666666666666
40
0.19999999999999998
40
0.23333333333333331
40
0.26666666666666666
40
0.29999999999999999
40
0.33333333333333331
40
0.36666666666666664
40
0.39999999999999997
40
0.43333333333333329
40
0.46666666666666662
40
0.49999999999999994
40
0.53333333333333333
40
0.56666666666666665
40
0.59999999999999998
40
0.6333333333333333
40
0.66666666666666663
40
0.69999999999999996
40
0.73333333333333328
40
0.76666666666666661
40
0.79999999999999993
40
0.83333333333333326
40
0.86666666666666659
40
0.89999999999999991
40
0.93333333333333324
40
0.96666666666666656
40
1
40
1
40
1
40
1
40
1
40
1
41
1
41
1
41
1
41
1
41
1
41
1
41
1
41
1
41
1
41
1
41
1
41
1
41
1
41
1
41
1
41
1
41
1
41
1
41
1
41
1
41
1
41
1
41
1
41
1
41
1
41
1
41
1
41
1
41
1
41
1
41
1
41
1
41
1
41
1
41
1
10
1.6462861212869429e-14
20
-64.574602860704772
30
0
10
0.038801273058791497
20
-64.572644463814697
30
0
10
0.14277345910892791
20
-64.562797840938202
30
0
10
0.37783779391007943
20
-64.53023885778363
30
0
10
0.82875833998726434
20
-64.452884446346573
30
0
10
1.5112604028608598
20
-64.306542825865193
30
0
10
2.1889937012137177
20
-64.114889494906237
30
0
10
2.7690897611212244
20
-63.874436302956781
30
0
10
3.2364523392086388
20
-63.568116478980492
30
0
10
3.6258512018074418
20
-63.173128766869091
30
0
10
3.9894676074096775
20
-62.669810899305951
30
0
10
4.3691660159566217
20
-62.049306238749153
30
0
10
4.7596612245475143
20
-61.323953865572008
30
0
10
5.1169276241949895
20
-60.524166962381202
30
0
10
5.3829547928787438
20
-59.690329086011253
30
0
10
5.5059036055687773
20
-58.866345512331193
30
0
10
5.4602863495878227
20
-58.092711578426389
30
0
10
5.2718950349139151
20
-57.399408485678791
30
0
10
5.0266276826872751
20
-56.79991919371745
30
0
10
4.8293632400378899
20
-56.288212073929742
30
0
10
4.7715987173662082
20
-55.835910493716803
30
0
10
4.8960879635033958
20
-55.387421001627175
30
0
10
5.1611431335268581
20
-54.859690339126821
30
0
10
5.4706257107581795
20
-54.173661709620248
30
0
10
5.7034170876113022
20
-53.317512662365758
30
0
10
5.7462592597050151
20
-52.338087962843503
30
0
10
5.517183669775231
20
-51.50300986460158
30
0
10
5.0159788846937872
20
-50.992421682191669
30
0
10
4.3148556194679202
20
-50.690733077043518
30
0
10
3.5275771653608903
20
-50.363933985849968
30
0
10
2.7872012885593827
20
-49.689121240619343
30
0
10
2.3337461419106735
20
-48.614752792386611
30
0
10
2.1149807799639033
20
-47.394545616472513
30
0
10
2.0284424950039854
20
-46.382460640846233
30
0
10
2.0000000000000164
20
-45.826760175965504
30
0
0
CIRCLE
5
149
100
AcDbEntity
8
0
100
AcDbCircle
10
3.1819805153394833
20
-52.644779660626057
30
0
40
1.05
210
0
220
0
230
1
0
CIRCLE
5
150
100
AcDbEntity
8
0
100
AcDbCircle
10
-3.1819805153394531
20
-52.644779660626064
30
0
40
1.05
210
0
220
-0
230
1
0
CIRCLE
5
151
100
AcDbEntity
8
0
100
AcDbCircle
10
-3.1819805153394389
20
-59.008740691304986
30
0
40
1.05
210
0
220
0
230
1
0
SPLINE
5
152
100
AcDbEntity
8
0
100
AcDbSpline
70
4
71
5
72
26
73
20
74
0
42
0.000000001
43
0.0000000001
44
0.0000000001
40
0
40
0
40
0
40
0
40
0
40
0
40
0.066666666666666666
40
0.13333333333333333
40
0.20000000000000001
40
0.26666666666666666
40
0.33333333333333331
40
0.39999999999999997
40
0.46666666666666662
40
0.53333333333333333
40
0.59999999999999998
40
0.66666666666666663
40
0.73333333333333328
40
0.79999999999999993
40
0.86666666666666659
40
0.93333333333333324
40
1
40
1
40
1
40
1
40
1
40
1
41
1
41
1
41
1
41
1
41
1
41
1
41
1
41
1
41
1
41
1
41
1
41
1
41
1
41
1
41
1
41
1
41
1
41
1
41
1
41
1
10
1.4623383476634954e-14
20
-60.950505826877652
30
0
10
0.15396861475467272
20
-60.950505826877652
30
0
10
0.4609740258886475
20
-60.950156306449216
30
0
10
0.91870430226592126
20
-60.948560926553775
30
0
10
1.5107263511898952
20
-60.952620554276891
30
0
10
2.1536673403099789
20
-61.007799452919258
30
0
10
2.6216200529740648
20
-61.155369401089658
30
0
10
2.8577251602350842
20
-61.412622308734306
30
0
10
2.8397507578885302
20
-61.767904492235914
30
0
10
2.6421359880264483
20
-62.117366749554719
30
0
10
2.3435909247338369
20
-62.395419504675154
30
0
10
1.9964717205418503
20
-62.593132917964418
30
0
10
1.6403512445962718
20
-62.724236804305775
30
0
10
1.29709145888967
20
-62.815845524976631
30
0
10
0.97242478191882831
20
-62.886296390875188
30
0
10
0.65824748775296293
20
-62.940491562527683
30
0
10
0.40416745939834797
20
-62.969360034962129
30
0
10
0.20587928655414242
20
-62.980649391026475
30
0
10
0.069349593103291654
20
-62.983158754355387
30
0
10
2.3505167673636207e-14
20
-62.983158754355387
30
0
0
SPLINE
5
153
100
AcDbEntity
8
0
100
AcDbSpline
70
4
71
5
72
26
73
20
74
0
42
0.000000001
43
0.0000000001
44
0.0000000001
40
0
40
0
40
0
40
0
40
0
40
0
40
0.066666666666666666
40
0.13333333333333333
40
0.20000000000000001
40
0.26666666666666666
40
0.33333333333333331
40
0.39999999999999997
40
0.46666666666666662
40
0.53333333333333333
40
0.59999999999999998
40
0.66666666666666663
40
0.73333333333333328
40
0.79999999999999993
40
0.86666666666666659
40
0.93333333333333324
40
1
40
1
40
1
40
1
40
1
40
1
41
1
41
1
41
1
41
1
41
1
41
1
41
1
41
1
41
1
41
1
41
1
41
1
41
1
41
1
41
1
41
1
41
1
41
1
41
1
41
1
10
1.4623383476634954e-14
20
-60.950505826877652
30
0
10
-0.15396861475464238
20
-60.950505826877652
30
0
10
-0.46097402588861447
20
-60.950156306449216
30
0
10
-0.91870430226588184
20
-60.948560926553839
30
0
10
-1.5107263511898488
20
-60.952620554277097
30
0
10
-2.1536673403099242
20
-61.007799452919485
30
0
10
-2.6216200529740092
20
-61.1553694010898
30
0
10
-2.8577251602350318
20
-61.412622308734356
30
0
10
-2.8397507578884884
20
-61.767904492235914
30
0
10
-2.6421359880264177
20
-62.117366749554819
30
0
10
-2.3435909247338107
20
-62.395419504675289
30
0
10
-1.9964717205418259
20
-62.593132917964624
30
0
10
-1.6403512445962412
20
-62.724236804305875
30
0
10
-1.2970914588896338
20
-62.815845524976559
30
0
10
-0.97242478191878867
20
-62.886296390875103
30
0
10
-0.65824748775292385
20
-62.940491562527725
30
0
10
-0.40416745939830717
20
-62.969360034962193
30
0
10
-0.20587928655409898
20
-62.980649391026482
30
0
10
-0.069349593103245871
20
-62.983158754355387
30
0
10
2.3505167673636207e-14
20
-62.983158754355387
30
0
0
CIRCLE
5
154
100
AcDbEntity
8
0
100
AcDbCircle
10
1.7763568394002505e-14
20
-55.826760175965511
30
0
40
2.2500000000000004
210
0
220
-0
230
1
0
CIRCLE
5
155
100
AcDbEntity
8
0
100
AcDbCircle
10
3.1819805153394887
20
-59.008740691304965
30
0
40
1.05
210
0
220
0
230
1
0
LINE
5
156
100
AcDbEntity
8
0
100
AcDbLine
10
-29.187767452785913
20
17.121571634495446
30
0
11
-23.316713526300443
21
11.250517708010017
31
0
0
SPLINE
5
157
100
AcDbEntity
8
0
100
AcDbSpline
70
4
71
5
72
16
73
10
74
0
42
0.000000001
43
0.0000000001
44
0.0000000001
40
0
40
0
40
0
40
0
40
0
40
0
40
0.20000000000000001
40
0.40000000000000002
40
0.60000000000000009
40
0.80000000000000004
40
1
40
1
40
1
40
1
40
1
40
1
41
1
41
1
41
1
41
1
41
1
41
1
41
1
41
1
41
1
41
1
10
-23.316713526300443
20
11.250517708010017
30
0
10
-23.277472137787242
20
11.211276319496816
30
0
10
-23.209720985591527
20
11.1016308136855
30
0
10
-23.140256436519465
20
10.843765364728711
30
0
10
-23.099856887518794
20
10.344886291120348
30
0
10
-23.084425271201265
20
9.5914971938121969
30
0
10
-23.055661567529157
20
8.9872028349668689
30
0
10
-23.002689167774733
20
8.5799262710115478
30
0
10
-22.949769184290304
20
8.3359173531804664
30
0
10
-22.918903261035535
20
8.22079818920108
30
0
0
LINE
5
158
100
AcDbEntity
8
0
100
AcDbLine
10
-29.0134559672906
20
19.113961030678944
30
0
11
-29.187767452785913
21
17.121571634495446
31
0
0
SPLINE
5
159
100
AcDbEntity
8
0
100
AcDbSpline
70
6
71
5
72
26
73
20
74
0
42
0.000000001
43
0.0000000001
44
0.0000000001
40
0
40
0
40
0
40
0
40
0
40
0
40
0.066666666666666666
40
0.13333333333333333
40
0.20000000000000001
40
0.26666666666666666
40
0.33333333333333331
40
0.39999999999999997
40
0.46666666666666662
40
0.53333333333333333
40
0.59999999999999998
40
0.66666666666666663
40
0.73333333333333328
40
0.79999999999999993
40
0.86666666666666659
40
0.93333333333333324
40
1
40
1
40
1
40
1
40
1
40
1
41
1
41
1
41
1
41
1
41
1
41
1
41
1
41
1
41
1
41
1
41
1
41
1
41
1
41
1
41
1
41
1
41
1
41
1
41
1
41
1
10
2.107590106756847
20
-14.494771307447852
30
0
10
1.9605000388071103
20
-14.343355061029005
30
0
10
1.7404809475098681
20
-13.936160008477875
30
0
10
1.5760043761738096
20
-12.916066750281068
30
0
10
1.3763621844335341
20
-10.445931796769891
30
0
10
1.3140260986823589
20
-6.8866557811591145
30
0
10
1.6485660854844462
20
-4.3751072458750331
30
0
10
2.6711607346334527
20
-4.2692258682559174
30
0
10
4.2400701032835455
20
-6.061066152929234
30
0
10
5.8880039516044755
20
-7.9751705844340943
30
0
10
7.4341827027357565
20
-9.751359673239369
30
0
10
8.6899898682982961
20
-11.332925833056207
30
0
10
9.4303114233229053
20
-12.883508283413276
30
0
10
9.3367346327843119
20
-14.370499802097434
30
0
10
7.7190661311310107
20
-15.020459533828593
30
0
10
5.2670146800428963
20
-15.077806728975798
30
0
10
3.4549473279644265
20
-14.925487707766811
30
0
10
2.6230213552082904
20
-14.844657486990961
30
0
10
2.2546801747065839
20
-14.646187553866699
30
0
10
2.107590106756847
20
-14.494771307447852
30
0
0
SPLINE
5
160
100
AcDbEntity
8
0
100
AcDbSpline
70
6
71
5
72
36
73
30
74
0
42
0.000000001
43
0.0000000001
44
0.0000000001
40
0
40
0
40
0
40
0
40
0
40
0
40
0.040000000000000001
40
0.080000000000000002
40
0.12
40
0.16
40
0.20000000000000001
40
0.24000000000000002
40
0.28000000000000003
40
0.32000000000000001
40
0.35999999999999999
40
0.39999999999999997
40
0.43999999999999995
40
0.47999999999999993
40
0.51999999999999991
40
0.55999999999999994
40
0.59999999999999998
40
0.64000000000000001
40
0.68000000000000005
40
0.72000000000000008
40
0.76000000000000012
40
0.80000000000000016
40
0.84000000000000019
40
0.88000000000000023
40
0.92000000000000026
40
0.9600000000000003
40
1
40
1
40
1
40
1
40
1
40
1
41
1
41
1
41
1
41
1
41
1
41
1
41
1
41
1
41
1
41
1
41
1
41
1
41
1
41
1
41
1
41
1
41
1
41
1
41
1
41
1
41
1
41
1
41
1
41
1
41
1
41
1
41
1
41
1
41
1
41
1
10
-4.1440172827653505
20
2.1120953998278686
30
0
10
-4.0526673482071152
20
1.9543091492272797
30
0
10
-3.9957634672185929
20
1.6974275707339357
30
0
10
-4.3315174686403175
20
1.4670746606846199
30
0
10
-5.7138414819716301
20
1.3297910543003619
30
0
10
-8.6008810541466936
20
1.3003057140181769
30
0
10
-11.99896462684314
20
1.3033867311448315
30
0
10
-15.137047710433327
20
1.323089235439747
30
0
10
-17.416621956818894
20
1.4161224197010467
30
0
10
-18.487930184453454
20
1.6862732229793467
30
0
10
-18.775309779792519
20
2.3597542704186498
30
0
10
-18.782216776437725
20
3.5287694483304715
30
0
10
-18.588904271070071
20
5.0571505128018144
30
0
10
-18.210793279537
20
6.7291134453750567
30
0
10
-17.603627029937318
20
8.2927016163540852
30
0
10
-16.864035509737029
20
9.570702597410623
30
0
10
-16.148134472968998
20
10.450453809245513
30
0
10
-15.556209565398749
20
10.885228600751223
30
0
10
-14.914902188855265
20
10.788752806301146
30
0
10
-13.817591278369267
20
10.191068939633547
30
0
10
-12.754762699844122
20
9.7140608994960367
30
0
10
-12.224718313507363
20
9.8623847387258596
30
0
10
-11.653535971071269
20
9.7226248582250125
30
0
10
-10.50751875313793
20
8.6728731714621041
30
0
10
-8.8163186145116068
20
6.8979767317015748
30
0
10
-6.8121425311252679
20
4.8372379068588005
30
0
10
-5.3402729662976602
20
3.4027162887572211
30
0
10
-4.5438630745679891
20
2.6441450743374606
30
0
10
-4.235367217323585
20
2.2698816504284562
30
0
10
-4.1440172827653505
20
2.1120953998278686
30
0
0
LINE
5
161
100
AcDbEntity
8
0
100
AcDbLine
10
18.776416397047925
20
-25.815387176269191
30
0
11
25.786219537135111
21
-18.804731099165124
31
0
0
ARC
5
162
100
AcDbEntity
8
0
100
AcDbCircle
10
16.996832991066903
20
-24.059516195043756
30
0
40
2.5000000001690954
210
0
220
0
230
1
100
AcDbArc
50
225.0000190383914
51
315.38427917320672
0
ARC
5
163
100
AcDbEntity
8
0
100
AcDbCircle
10
24.059516195045152
20
-16.996832991068274
30
0
40
2.5000000001689608
210
0
220
0
230
1
100
AcDbArc
50
-46.315933196514557
51
44.999980961653229
0
LWPOLYLINE
5
164
100
AcDbEntity
8
0
100
AcDbPolyline
90
6
70
1
43
0.0
10
-21.755988752018229
20
15.052217887186073
10
-22.466225144760905
20
20.554790089830636
42
0.622719421792436
10
-24.165104597246319
20
21.133885275977047
10
-26.561272502197269
20
18.737717371026086
42
0.4142135623730932
10
-26.561272502197262
20
17.32350380865299
10
-23.454868204503629
20
14.217099510959383
42
0.71563078932975721
0
LWPOLYLINE
5
165
100
AcDbEntity
8
0
100
AcDbPolyline
90
6
70
1
43
0.0
10
-21.13388527597705
20
24.165104597246319
10
-18.737717371026093
20
26.561272502197273
42
-0.41421356237309231
10
-17.323503808652994
20
26.561272502197273
10
-14.217099510959393
20
23.454868204503644
42
-0.71563078932975954
10
-15.052217887186073
20
21.755988752018244
10
-20.554790089830632
20
22.466225144760902
42
-0.62271942179243633
0
LINE
5
166
100
AcDbEntity
8
0
100
AcDbLine
10
-18.940836145531193
20
17.799074470958004
30
0
11
-18.301876360838737
21
13.689471914082119
31
0
0
LINE
5
167
100
AcDbEntity
8
0
100
AcDbLine
10
-16.606641729651358
20
13.135998957467926
30
0
11
-14.871320343559656
21
14.871320343559656
31
0
0
ARC
5
168
100
AcDbEntity
8
0
100
AcDbCircle
10
-17.313748510837904
20
13.84310573865447
30
0
40
0.99999999999999623
210
0
220
0
230
1
100
AcDbArc
50
188.83757115460568
51
315.00000000000006
0
LINE
5
169
100
AcDbEntity
8
0
100
AcDbLine
10
-17.799074470958008
20
18.940836145531193
30
0
11
-13.689471914082107
21
18.301876360838754
31
0
0
LINE
5
170
100
AcDbEntity
8
0
100
AcDbLine
10
-13.13599895746793
20
16.606641729651372
30
0
11
-14.871320343559644
21
14.871320343559667
31
0
0
ARC
5
171
100
AcDbEntity
8
0
100
AcDbCircle
10
-13.843105738654467
20
17.313748510837918
30
0
40
0.99999999999999334
210
0
220
0
230
1
100
AcDbArc
50
-45.000000000000355
51
81.162428845393777
0
ARC
5
172
100
AcDbEntity
8
0
100
AcDbCircle
10
-17.952708295530361
20
17.952708295530361
30
0
40
0.99999999999999822
210
0
220
-0
230
1
100
AcDbArc
50
81.162428845394146
51
188.83757115460602
0
LWPOLYLINE
5
173
100
AcDbEntity
8
0
100
AcDbPolyline
90
8
70
1
43
0.0
10
3.6160239957536824
20
12.016023995753679
10
8.016023995753681
20
12.016023995753681
42
-0.41421356237309481
10
12.016023995753681
20
8.0160239957536827
10
12.016023995753681
20
3.6160239957536824
42
-0.41421356237309587
10
10.416023995753683
20
2.0160239957536823
10
3.6160239957536837
20
2.0160239957536819
42
-0.4142135623730957
10
2.0160239957536819
20
3.6160239957536824
10
2.0160239957536827
20
10.416023995753685
42
-0.41421356237309503
0
LWPOLYLINE
5
174
100
AcDbEntity
8
0
100
AcDbPolyline
90
8
70
1
43
0.0
10
-2.016023995753673
20
-3.6160239957536753
42
0.41421356237309626
10
-3.6160239957536722
20
-2.016023995753673
10
-10.416023995753674
20
-2.016023995753673
42
0.41421356237309465
10
-12.01602399575367
20
-3.6160239957536744
10
-12.01602399575367
20
-8.0160239957536739
42
0.4142135623730952
10
-8.0160239957536668
20
-12.016023995753674
10
-3.6160239957536722
20
-12.016023995753674
42
0.41421356237309626
10
-2.0160239957536708
20
-10.416023995753674
0
LINE
5
175
100
AcDbEntity
8
0
100
AcDbLine
10
20.528174593052228
20
-20.528174593059809
30
0
11
19.666109204208194
21
-21.39049238301661
31
0
0
LINE
5
176
100
AcDbEntity
8
0
100
AcDbLine
10
18.764599944153129
20
-22.291749241958211
30
0
11
18.764839444328125
21
-22.291988672031312
31
0
0
LINE
5
177
100
AcDbEntity
8
0
100
AcDbLine
10
13.10381274388843
20
-16.639346645572598
30
0
11
14.871320942560315
21
-14.871320944351661
31
0
0
LINE
5
178
100
AcDbEntity
8
0
100
AcDbLine
10
14.286343736070698
20
-21.40862026773139
30
0
11
12.441612354279519
21
-19.564580447250005
31
0
0
LINE
5
179
100
AcDbEntity
8
0
100
AcDbLine
10
15.225673037335616
20
-22.296740840256952
30
0
11
15.196577621429491
21
-22.325840866018183
31
0
0
LINE
5
180
100
AcDbEntity
8
0
100
AcDbLine
10
12.441310611802061
20
-17.301716284059928
30
0
11
14.871320942560315
21
-14.871320944351661
31
0
0
LINE
5
181
100
AcDbEntity
8
0
100
AcDbLine
10
22.320945430945905
20
-15.200344277197747
30
0
11
22.262752067739271
21
-15.258546860515668
31
0
0
ARC
5
182
100
AcDbEntity
8
0
100
AcDbCircle
10
13.572771077810593
20
-18.432997510749288
30
0
40
1.6000000000000068
210
0
220
0
230
1
100
AcDbArc
50
135.00453858985449
51
225.01074166482181
0
ARC
5
183
100
AcDbEntity
8
0
100
AcDbCircle
10
16.997632061356157
20
-24.060315069073827
30
0
40
2.4999999999999951
210
0
220
-0
230
1
100
AcDbArc
50
67.984118103109353
51
112.66841751763208
0
ARC
5
184
100
AcDbEntity
8
0
100
AcDbCircle
10
15.417502459601751
20
-20.277037331230719
30
0
40
1.5999999999999635
210
0
220
0
230
1
100
AcDbArc
50
225.01074166482121
51
292.66841751763235
0
ARC
5
185
100
AcDbEntity
8
0
100
AcDbCircle
10
18.53457276561516
20
-20.259287146051989
30
0
40
1.5999999999999881
210
0
220
0
230
1
100
AcDbArc
50
247.9841181031093
51
315.00838648774862
0
LINE
5
186
100
AcDbEntity
8
0
100
AcDbLine
10
16.639346645572608
20
-13.103812743888426
30
0
11
14.87132094435167
21
-14.871320942560295
31
0
0
LINE
5
187
100
AcDbEntity
8
0
100
AcDbLine
10
17.301716284059939
20
-12.441310611802049
30
0
11
14.87132094435167
21
-14.871320942560295
31
0
0
ARC
5
188
100
AcDbEntity
8
0
100
AcDbCircle
10
18.432997510749296
20
-13.572771077810586
30
0
40
1.6000000000000232
210
0
220
-0
230
1
100
AcDbArc
50
44.989258335178384
51
134.99546141014528
0
LINE
5
189
100
AcDbEntity
8
0
100
AcDbLine
10
21.408620267731401
20
-14.28634373607067
30
0
11
19.564580447250016
21
-12.441612354279499
31
0
0
ARC
5
190
100
AcDbEntity
8
0
100
AcDbCircle
10
20.277037331230723
20
-15.41750245960176
30
0
40
1.5999999999999961
210
0
220
0
230
1
100
AcDbArc
50
-22.668417517631447
51
44.989258335179564
0
ARC
5
191
100
AcDbEntity
8
0
100
AcDbCircle
10
24.060315069073852
20
-16.997632061356132
30
0
40
2.499999999999984
210
0
220
0
230
1
100
AcDbArc
50
157.33158248236825
51
202.01588189689102
0
ARC
5
192
100
AcDbEntity
8
0
100
AcDbCircle
10
20.259287146052003
20
-18.534572765615152
30
0
40
1.6000000000000134
210
0
220
0
230
1
100
AcDbArc
50
-45.008386487748169
51
22.015881896890512
0
LINE
5
193
100
AcDbEntity
8
0
100
AcDbLine
10
20.528174593052228
20
-20.528174593059809
30
0
11
21.390492383016646
21
-19.66610920420819
31
0
0
CIRCLE
5
194
100
AcDbEntity
8
0
100
AcDbCircle
10
-1.7208456881689926e-14
20
61.132971435412102
30
0
40
2.2500000000000013
210
0
220
0
230
1
0
CIRCLE
5
195
100
AcDbEntity
8
0
100
AcDbCircle
10
-57.950990920072627
20
3.1819805153394154
30
0
40
1.05
210
0
220
0
230
1
0
SPLINE
5
196
100
AcDbEntity
8
0
100
AcDbSpline
70
4
71
5
72
26
73
20
74
0
42
0.000000001
43
0.0000000001
44
0.0000000001
40
0
40
0
40
0
40
0
40
0
40
0
40
0.066666666666666666
40
0.13333333333333333
40
0.20000000000000001
40
0.26666666666666666
40
0.33333333333333331
40
0.39999999999999997
40
0.46666666666666662
40
0.53333333333333333
40
0.59999999999999998
40
0.66666666666666663
40
0.73333333333333328
40
0.79999999999999993
40
0.86666666666666659
40
0.93333333333333324
40
1
40
1
40
1
40
1
40
1
40
1
41
1
41
1
41
1
41
1
41
1
41
1
41
1
41
1
41
1
41
1
41
1
41
1
41
1
41
1
41
1
41
1
41
1
41
1
41
1
41
1
10
-66.256717104623007
20
-4.9648896624196634e-14
30
0
10
-66.256717104623007
20
-0.15396861526868502
30
0
10
-66.25636758379062
20
-0.46097402739065035
30
0
10
-66.254772202071763
20
-0.91870430512937973
30
0
10
-66.258831825924815
20
-1.5107263555418444
30
0
10
-66.314010721489623
20
-2.1536673454945783
30
0
10
-66.461580672358792
20
-2.6216200575228998
30
0
10
-66.718833587767278
20
-2.8577251623033502
30
0
10
-67.074115780120437
20
-2.8397507559912039
30
0
10
-67.423578026464355
20
-2.6421359810757474
30
0
10
-67.701630755410932
20
-2.3435909118415381
30
0
10
-67.899344149454038
20
-1.9964717037113373
30
0
10
-68.030448048037798
20
-1.6403512282581976
30
0
10
-68.1220568294478
20
-1.2970914488230501
30
0
10
-68.192507797879145
20
-0.97242478193151693
30
0
10
-68.246703084599545
20
-0.65824749690098239
30
0
10
-68.27557163009358
20
-0.40416747068514897
30
0
10
-68.286861015796603
20
-0.20587929440856573
30
0
10
-68.289370385712928
20
-0.069349596142641592
30
0
10
-68.289370385712928
20
-4.3355263489272718e-14
30
0
0
CIRCLE
5
197
100
AcDbEntity
8
0
100
AcDbCircle
10
-64.314951950751535
20
3.1819805153394243
30
0
40
1.05
210
0
220
0
230
1
0
SPLINE
5
198
100
AcDbEntity
8
0
100
AcDbSpline
70
4
71
5
72
41
73
35
74
0
42
0.000000001
43
0.0000000001
44
0.0000000001
40
0
40
0
40
0
40
0
40
0
40
0
40
0.033333333333333333
40
0.066666666666666666
40
0.10000000000000001
40
0.13333333333333333
40
0.16666666666666666
40
0.19999999999999998
40
0.23333333333333331
40
0.26666666666666666
40
0.29999999999999999
40
0.33333333333333331
40
0.36666666666666664
40
0.39999999999999997
40
0.43333333333333329
40
0.46666666666666662
40
0.49999999999999994
40
0.53333333333333333
40
0.56666666666666665
40
0.59999999999999998
40
0.6333333333333333
40
0.66666666666666663
40
0.69999999999999996
40
0.73333333333333328
40
0.76666666666666661
40
0.79999999999999993
40
0.83333333333333326
40
0.86666666666666659
40
0.89999999999999991
40
0.93333333333333324
40
0.96666666666666656
40
1
40
1
40
1
40
1
40
1
40
1
41
1
41
1
41
1
41
1
41
1
41
1
41
1
41
1
41
1
41
1
41
1
41
1
41
1
41
1
41
1
41
1
41
1
41
1
41
1
41
1
41
1
41
1
41
1
41
1
41
1
41
1
41
1
41
1
41
1
41
1
41
1
41
1
41
1
41
1
41
1
10
-69.880814057844574
20
-4.5381628078148993e-14
30
0
10
-69.878856194154537
20
0.03879070893383027
30
0
10
-69.869013699187207
20
0.14272693622978203
30
0
10
-69.836470102036344
20
0.37769278937282824
30
0
10
-69.7591531885775
20
0.82841724362215496
30
0
10
-69.61288311606215
20
1.5106783325746429
30
0
10
-69.421326762947814
20
2.1882814761959821
30
0
10
-69.181010207480909
20
2.7683777179443716
30
0
10
-68.874892122441352
20
3.2357831266995785
30
0
10
-68.48018721960733
20
3.6251794339564842
30
0
10
-67.97723474563557
20
3.9886846507181275
30
0
10
-67.357152133018246
20
4.3681848008593329
30
0
10
-66.63221992145202
20
4.7585365427342836
30
0
10
-65.832800215721591
20
5.1158341034379511
30
0
10
-64.999230759188194
20
5.382155955612796
30
0
10
-64.175386687273559
20
5.5056632202218134
30
0
10
-63.401751524476573
20
5.4607710324229854
30
0
10
-62.708325672704049
20
5.2729739285347055
30
0
10
-62.108629820371817
20
5.0278751232468437
30
0
10
-61.596708571801273
20
4.8302071754112905
30
0
10
-61.144286796121136
20
4.7714892141033385
30
0
10
-60.695969901784068
20
4.8948285648792993
30
0
10
-60.168849069215675
20
5.1590883475951017
30
0
10
-59.483837377651064
20
5.4685458060751877
30
0
10
-58.628791345369613
20
5.7022576360619484
30
0
10
-57.650230399313159
20
5.7468531954979341
30
0
10
-56.81453737508722
20
5.5195664002142939
30
0
10
-56.304210026290384
20
5.0192446176082139
30
0
10
-56.003969123918857
20
4.3180085088579352
30
0
10
-55.679947937177154
20
3.5298215430588704
30
0
10
-55.008780510124097
20
2.7882308714006636
30
0
10
-53.937579730833136
20
2.3339935826491134
30
0
10
-52.719645487215232
20
2.1149574980364707
30
0
10
-51.708997533704931
20
2.0284067242733186
30
0
10
-51.153995946036758
20
1.9999999999999563
30
0
0
SPLINE
5
199
100
AcDbEntity
8
0
100
AcDbSpline
70
4
71
5
72
41
73
35
74
0
42
0.000000001
43
0.0000000001
44
0.0000000001
40
0
40
0
40
0
40
0
40
0
40
0
40
0.033333333333333333
40
0.066666666666666666
40
0.10000000000000001
40
0.13333333333333333
40
0.16666666666666666
40
0.19999999999999998
40
0.23333333333333331
40
0.26666666666666666
40
0.29999999999999999
40
0.33333333333333331
40
0.36666666666666664
40
0.39999999999999997
40
0.43333333333333329
40
0.46666666666666662
40
0.49999999999999994
40
0.53333333333333333
40
0.56666666666666665
40
0.59999999999999998
40
0.6333333333333333
40
0.66666666666666663
40
0.69999999999999996
40
0.73333333333333328
40
0.76666666666666661
40
0.79999999999999993
40
0.83333333333333326
40
0.86666666666666659
40
0.89999999999999991
40
0.93333333333333324
40
0.96666666666666656
40
1
40
1
40
1
40
1
40
1
40
1
41
1
41
1
41
1
41
1
41
1
41
1
41
1
41
1
41
1
41
1
41
1
41
1
41
1
41
1
41
1
41
1
41
1
41
1
41
1
41
1
41
1
41
1
41
1
41
1
41
1
41
1
41
1
41
1
41
1
41
1
41
1
41
1
41
1
41
1
41
1
10
-69.880814057844503
20
-6.3145196472151372e-14
30
0
10
-69.878855127999785
20
-0.038811832414545798
30
0
10
-69.869004383099607
20
-0.14281996519175838
30
0
10
-69.836430038918579
20
-0.37798275638051915
30
0
10
-69.759038187686372
20
-0.82909933611945963
30
0
10
-69.612625092399711
20
-1.5118422469434436
30
0
10
-69.420874816853299
20
-2.1897055246353188
30
0
10
-69.18028494841036
20
-2.769801316028385
30
0
10
-68.873763302894062
20
-3.2371211269182005
30
0
10
-68.478492727817638
20
-3.6265227187905054
30
0
10
-67.974809511304727
20
-3.9902505202798593
30
0
10
-67.353883046502119
20
-4.3701471035949524
30
0
10
-66.628110925072633
20
-4.7607852789481315
30
0
10
-65.827957304296788
20
-5.1180197083951393
30
0
10
-64.993851445532869
20
-5.3837512836478751
30
0
10
-64.169728672327949
20
-5.5061410046184882
30
0
10
-63.396096080099682
20
-5.4597988693129498
30
0
10
-62.702915723486171
20
-5.2708150898152608
30
0
10
-62.103632992243362
20
-5.0253819509009485
30
0
10
-61.592140067358315
20
-4.8285239246055376
30
0
10
-61.139958612074807
20
-4.7717147977511969
30
0
10
-60.691295796772458
20
-4.8973525394313038
30
0
10
-60.162953575738165
20
-5.1631987159653345
30
0
10
-59.475907028206038
20
-5.4727001023238664
30
0
10
-58.618651676757793
20
-5.7045657384812865
30
0
10
-57.638367800072245
20
-5.745652260801366
30
0
10
-56.803901554567737
20
-5.5147962508846815
30
0
10
-56.293045824641645
20
-5.0127159789365479
30
0
10
-55.989908273346813
20
-4.311709877218016
30
0
10
-55.660334295240581
20
-3.5253398673626259
30
0
10
-54.981881941258841
20
-2.786175961490887
30
0
10
-53.904349326547106
20
-2.3335002740926232
30
0
10
-52.681869760606695
20
-2.1150044158232233
30
0
10
-51.668346959174912
20
-2.0284783011684113
30
0
10
-51.111946924787389
20
-2.000000000000044
30
0
0
CIRCLE
5
200
100
AcDbEntity
8
0
100
AcDbCircle
10
-61.132971435412067
20
-3.3306690738754696e-14
30
0
40
2.2500000000000013
210
0
220
0
230
1
0
CIRCLE
5
201
100
AcDbEntity
8
0
100
AcDbCircle
10
-57.95099092007262
20
-3.1819805153394909
30
0
40
1.05
210
0
220
-0
230
1
0
CIRCLE
5
202
100
AcDbEntity
8
0
100
AcDbCircle
10
-64.314951950751521
20
-3.1819805153394998
30
0
40
0.8778175077423418
210
0
220
0
230
1
0
SPLINE
5
203
100
AcDbEntity
8
0
100
AcDbSpline
70
4
71
5
72
26
73
20
74
0
42
0.000000001
43
0.0000000001
44
0.0000000001
40
0
40
0
40
0
40
0
40
0
40
0
40
0.066666666666666666
40
0.13333333333333333
40
0.20000000000000001
40
0.26666666666666666
40
0.33333333333333331
40
0.39999999999999997
40
0.46666666666666662
40
0.53333333333333333
40
0.59999999999999998
40
0.66666666666666663
40
0.73333333333333328
40
0.79999999999999993
40
0.86666666666666659
40
0.93333333333333324
40
1
40
1
40
1
40
1
40
1
40
1
41
1
41
1
41
1
41
1
41
1
41
1
41
1
41
1
41
1
41
1
41
1
41
1
41
1
41
1
41
1
41
1
41
1
41
1
41
1
41
1
10
-66.256717104623007
20
-4.9648896624196634e-14
30
0
10
-66.256717104623007
20
0.15396861526858482
30
0
10
-66.256367583790606
20
0.46097402739054888
30
0
10
-66.25477220207172
20
0.91870430512927814
30
0
10
-66.258831825924716
20
1.5107263555417463
30
0
10
-66.314010721489552
20
2.1536673454944868
30
0
10
-66.461580672358792
20
2.6216200575228124
30
0
10
-66.718833587767236
20
2.8577251623032618
30
0
10
-67.07411578012038
20
2.8397507559911199
30
0
10
-67.423578026464341
20
2.6421359810756737
30
0
10
-67.701630755410946
20
2.3435909118414759
30
0
10
-67.899344149453981
20
1.9964717037112745
30
0
10
-68.030448048037599
20
1.6403512282581232
30
0
10
-68.1220568294478
20
1.2970914488229635
30
0
10
-68.192507797879401
20
0.9724247819314259
30
0
10
-68.246703084599915
20
0.65824749690089268
30
0
10
-68.275571630093808
20
0.4041674706850622
30
0
10
-68.286861015796575
20
0.20587929440847991
30
0
10
-68.289370385712829
20
0.069349596142555328
30
0
10
-68.289370385712829
20
-4.3355263489272604e-14
30
0
0
SPLINE
5
204
100
AcDbEntity
8
0
100
AcDbSpline
70
4
71
5
72
21
73
15
74
0
42
0.000000001
43
0.0000000001
44
0.0000000001
40
0
40
0
40
0
40
0
40
0
40
0
40
0.10000000000000001
40
0.20000000000000001
40
0.30000000000000004
40
0.40000000000000002
40
0.5
40
0.59999999999999998
40
0.69999999999999996
40
0.79999999999999993
40
0.89999999999999991
40
1
40
1
40
1
40
1
40
1
40
1
41
1
41
1
41
1
41
1
41
1
41
1
41
1
41
1
41
1
41
1
41
1
41
1
41
1
41
1
41
1
10
-51.111946924787389
20
-2.000000000000044
30
0
10
-48.352135753090444
20
-2.0681879762320867
30
0
10
-43.289510786072469
20
-2.1845659930531887
30
0
10
-37.066375496500129
20
-2.2991441854176085
30
0
10
-31.281527440881256
20
-2.3438469190406606
30
0
10
-27.021821781230937
20
-2.2952877591159861
30
0
10
-24.313199534606021
20
-2.2545808926955564
30
0
10
-21.885278227125458
20
-2.3643440040776733
30
0
10
-19.044691263120448
20
-2.792719044516776
30
0
10
-15.925215350116408
20
-3.7274770431511248
30
0
10
-14.340532219625144
20
-5.367947918769616
30
0
10
-14.201611382087762
20
-7.4025485396054558
30
0
10
-14.429935350615699
20
-9.4063125514062236
30
0
10
-14.656861066436539
20
-10.964457741347967
30
0
10
-14.789192039299015
20
-11.799108432010163
30
0
0
SPLINE
5
205
100
AcDbEntity
8
0
100
AcDbSpline
70
4
71
5
72
21
73
15
74
0
42
0.000000001
43
0.0000000001
44
0.0000000001
40
0
40
0
40
0
40
0
40
0
40
0
40
0.10000000000000001
40
0.20000000000000001
40
0.30000000000000004
40
0.40000000000000002
40
0.5
40
0.59999999999999998
40
0.69999999999999996
40
0.79999999999999993
40
0.89999999999999991
40
1
40
1
40
1
40
1
40
1
40
1
41
1
41
1
41
1
41
1
41
1
41
1
41
1
41
1
41
1
41
1
41
1
41
1
41
1
41
1
41
1
10
-51.153995946036758
20
1.9999999999999563
30
0
10
-48.832178862810444
20
1.9763308217294555
30
0
10
-44.492019250907219
20
1.9405184244668199
30
0
10
-38.892150441558265
20
1.9213762866230115
30
0
10
-33.161795770424604
20
1.9670400337401404
30
0
10
-28.437920544524282
20
2.1564639051491805
30
0
10
-25.588451234458951
20
2.4980756860310969
30
0
10
-24.036050756828722
20
3.0137379449255084
30
0
10
-23.26203249935724
20
3.7219917207722801
30
0
10
-22.8692984162711
20
4.6290035168007924
30
0
10
-22.629002261247635
20
5.7197211654044384
30
0
10
-22.575137889472188
20
6.6938105776206891
30
0
10
-22.679062502170744
20
7.451042089815739
30
0
10
-22.82600185952214
20
7.963022570690593
30
0
10
-22.918903261035524
20
8.2207981892010711
30
0
0
ENDSEC
0
SECTION
2
OBJECTS
0
DICTIONARY
5
C
100
AcDbDictionary
3
ACAD_GROUP
350
D
3
ACAD_MLINESTYLE
350
17
0
DICTIONARY
5
D
100
AcDbDictionary
0
DICTIONARY
5
1A
330
C
100
AcDbDictionary
0
DICTIONARY
5
17
100
AcDbDictionary
0
ENDSEC
0
EOF
