0
SECTION
2
HEADER
9
$INSUNITS
70
4
9
$ACADVER
1
AC1014
9
$HANDSEED
5
FFFF
0
ENDSEC
0
SECTION
2
TABLES
0
TABLE
2
VPORT
5
8
100
AcDbSymbolTable
0
ENDTAB
0
TABLE
2
LTYPE
5
5
100
AcDbSymbolTable
0
LTYPE
5
14
100
AcDbSymbolTableRecord
100
AcDbLinetypeTableRecord
2
BYBLOCK
70
0
0
LTYPE
5
15
100
AcDbSymbolTableRecord
100
AcDbLinetypeTableRecord
2
BYLAYER
70
0
0
LTYPE
5
16
100
AcDbSymbolTableRecord
100
AcDbLinetypeTableRecord
2
DASHED
70
0
3
Dashed __ __ __ __ __ __ __ __ __ __ __ __ __ _
72
65
73
2
40
0.75
49
0.5
74
0
49
-0.25
74
0
0
ENDTAB
0
TABLE
2
LAYER
5
2
100
AcDbSymbolTable
70
2
0
LAYER
5
50
100
AcDbSymbolTableRecord
100
AcDbLayerTableRecord
2
0
70
0
62
7
6
CONTINUOUS
0
ENDTAB
0
TABLE
2
STYLE
5
3
100
AcDbSymbolTable
70
1
0
STYLE
5
11
100
AcDbSymbolTableRecord
100
AcDbTextStyleTableRecord
2
STANDARD
70
0
0
ENDTAB
0
TABLE
2
VIEW
5
6
100
AcDbSymbolTable
70
0
0
ENDTAB
0
TABLE
2
UCS
5
7
100
AcDbSymbolTable
70
0
0
ENDTAB
0
TABLE
2
APPID
5
9
100
AcDbSymbolTable
70
2
0
APPID
5
12
100
AcDbSymbolTableRecord
100
AcDbRegAppTableRecord
2
ACAD
70
0
0
ENDTAB
0
TABLE
2
DIMSTYLE
5
A
100
AcDbSymbolTable
70
1
0
ENDTAB
0
TABLE
2
BLOCK_RECORD
5
1
100
AcDbSymbolTable
70
1
0
BLOCK_RECORD
5
1F
100
AcDbSymbolTableRecord
100
AcDbBlockTableRecord
2
*MODEL_SPACE
0
BLOCK_RECORD
5
1B
100
AcDbSymbolTableRecord
100
AcDbBlockTableRecord
2
*PAPER_SPACE
0
ENDTAB
0
ENDSEC
0
SECTION
2
BLOCKS
0
BLOCK
5
20
100
AcDbEntity
100
AcDbBlockBegin
2
*MODEL_SPACE
0
ENDBLK
5
21
100
AcDbEntity
100
AcDbBlockEnd
0
BLOCK
5
1C
100
AcDbEntity
100
AcDbBlockBegin
2
*PAPER_SPACE
0
ENDBLK
5
1D
100
AcDbEntity
100
AcDbBlockEnd
0
ENDSEC
0
SECTION
2
ENTITIES
0
LINE
5
100
100
AcDbEntity
8
0
100
AcDbLine
10
-10.982233047033636
20
23.003048327204958
30
0
11
-23.003048327204894
21
10.982233047033603
31
0
0
ARC
5
101
100
AcDbEntity
8
0
100
AcDbCircle
10
-20.351397897755387
20
9.391242789363913
30
0
40
3.0000000000000009
210
0
220
0
230
1
100
AcDbArc
50
135.00000000000026
51
319.89382855899419
0
ARC
5
102
100
AcDbEntity
8
0
100
AcDbCircle
10
-9.3912427893639041
20
20.351397897755405
30
0
40
3.0000000000261378
210
0
220
0
230
1
100
AcDbArc
50
-49.893828560850743
51
135.00000000000026
0
ARC
5
103
100
AcDbEntity
8
0
100
AcDbCircle
10
24.059516195045155
20
-16.996832991068274
30
0
40
2.4999999999999125
210
0
220
0
230
1
100
AcDbArc
50
-45.003700080828146
51
45.000000000000199
0
ARC
5
104
100
AcDbEntity
8
0
100
AcDbCircle
10
16.996832991068288
20
-24.059516195045134
30
0
40
2.5000000002699836
210
0
220
0
230
1
100
AcDbArc
50
225.00000000000023
51
314.99999999999892
0
LINE
5
105
100
AcDbEntity
8
0
100
AcDbLine
10
-8.4979425724862026
20
-12.497942572486201
30
0
11
0.24287121270231399
21
-12.497942572486201
31
0
0
LINE
5
106
100
AcDbEntity
8
0
100
AcDbLine
10
12.49683107641393
20
-0.24175971701214607
30
0
11
12.496831076413933
21
8.4968310764139261
31
0
0
LINE
5
107
100
AcDbEntity
8
0
100
AcDbLine
10
8.496831076413935
20
12.49683107641393
30
0
11
-0.24175971701225624
21
12.496831076413933
31
0
0
LINE
5
108
100
AcDbEntity
8
0
100
AcDbLine
10
-12.497942572486195
20
0.24287121289415731
30
0
11
-12.497942572486199
21
-8.4979425724862008
31
0
0
ARC
5
109
100
AcDbEntity
8
0
100
AcDbCircle
10
-8.4979425724862008
20
-8.4979425724862026
30
0
40
3.9999999999999969
210
0
220
0
230
1
100
AcDbArc
50
180
51
270
0
ARC
5
110
100
AcDbEntity
8
0
100
AcDbCircle
10
8.4968310764139332
20
8.4968310764139297
30
0
40
3.9999999999999991
210
0
220
0
230
1
100
AcDbArc
50
0
51
89.999999999999972
0
LINE
5
111
100
AcDbEntity
8
0
100
AcDbLine
10
25.827283148011464
20
-15.229066038101953
30
0
11
13.668403951667745
21
-3.0701868417583307
31
0
0
LINE
5
112
100
AcDbEntity
8
0
100
AcDbLine
10
-3.0701868417584262
20
13.668403951667729
30
0
11
-7.4586247377854704
21
18.056841847694741
31
0
0
LINE
5
113
100
AcDbEntity
8
0
100
AcDbLine
10
15.229066037911018
20
-25.827283148202419
30
0
11
3.0712983374485066
21
-13.669515447740004
31
0
0
LINE
5
114
100
AcDbEntity
8
0
100
AcDbLine
10
-13.669515447723802
20
3.0712983376241505
30
0
11
-18.056841847777335
21
7.458624737727968
31
0
0
ARC
5
115
100
AcDbEntity
8
0
100
AcDbCircle
10
-16.497942572486213
20
0.24287121289415842
30
0
40
4.0000000000000169
210
-0
220
0
230
1
100
AcDbArc
50
0
51
44.999999999671644
0
ARC
5
116
100
AcDbEntity
8
0
100
AcDbCircle
10
-0.24175971701225513
20
16.496831076413915
30
0
40
3.9999999999999849
210
0
220
0
230
1
100
AcDbArc
50
225.00000000000014
51
270
0
ARC
5
117
100
AcDbEntity
8
0
100
AcDbCircle
10
16.496831076413905
20
-0.24175971701214743
30
0
40
3.9999999999999747
210
0
220
0
230
1
100
AcDbArc
50
180
51
225.00000000000023
0
ARC
5
118
100
AcDbEntity
8
0
100
AcDbCircle
10
0.24287121270231288
20
-16.49794257248622
30
0
40
4.0000000000000222
210
0
220
-0
230
1
100
AcDbArc
50
45.000000000000227
51
89.999999999999986
0
LWPOLYLINE
5
119
100
AcDbEntity
8
0
100
AcDbPolyline
90
6
70
1
43
0.0
10
1.1313708498984898
20
-2.5455844122715829
10
5.8988768734312371
20
-7.3130904358043169
42
-0.66817863791930177
10
4.7675060235327669
20
-10.044461285702793
10
-4.7675060235326994
20
-10.044461285702802
42
-0.66817863791929633
10
-5.8988768734311865
20
-7.3130904358043232
10
-1.1313708498984623
20
-2.5455844122715856
42
-0.41421356237309548
0
LWPOLYLINE
5
120
100
AcDbEntity
8
0
100
AcDbPolyline
90
6
70
1
43
0.0
10
-2.5455844122715772
20
-1.1313708498984807
42
0.41421356237309537
10
-2.5455844122715918
20
1.1313708498984709
10
-7.313090435804364
20
5.8988768734311847
42
0.6681786379193021
10
-10.04446128570283
20
4.7675060235326931
10
-10.044461285702766
20
-4.7675060235327757
42
0.66817863791929577
10
-7.3130904358042805
20
-5.8988768734312416
0
LWPOLYLINE
5
121
100
AcDbEntity
8
0
100
AcDbPolyline
90
8
70
1
43
0.0
10
7.408910426275563
20
-11.085865688445599
10
6.8474173050797047
20
-11.647358809641457
42
0.41421356237309515
10
6.8474173050797056
20
-13.910100509438411
10
13.996250493062943
20
-21.058933697421658
42
0.41421356237309537
10
16.258992192859886
20
-21.058933697421654
10
16.820485314055752
20
-20.497440576225792
42
0.41421356237309587
10
16.820485314055752
20
-18.234698876428844
10
9.6716521260725159
20
-11.085865688445599
42
0.41421356237309609
0
LWPOLYLINE
5
122
100
AcDbEntity
8
0
100
AcDbPolyline
90
8
70
1
43
0.0
10
-11.367394876825102
20
6.5674533724908333
10
-10.805901755742994
20
7.1289464935729345
42
0.41421356237309631
10
-10.80590175574299
20
9.3916881933698928
10
-13.5808288365336
20
12.166615274160504
42
0.41421356237309503
10
-15.843570536330546
20
12.166615274160506
10
-16.405063657412654
20
11.605122153078399
42
0.41421356237309465
10
-16.405063657412658
20
9.3423804532814518
10
-13.630136576622032
20
6.5674533724908288
42
0.4142135623730942
0
LINE
5
123
100
AcDbEntity
8
0
100
AcDbLine
10
18.764599944032977
20
-25.827283148009887
30
0
11
18.770402837260459
21
-25.821480255504206
31
0
0
ARC
5
124
100
AcDbEntity
8
0
100
AcDbCircle
10
22.169062961161035
20
-22.169062735437191
30
0
40
2.999443224468993
210
0
220
-0
230
1
100
AcDbArc
50
69.958644032587017
51
200.04136206522745
0
ARC
5
125
100
AcDbEntity
8
0
100
AcDbCircle
10
24.053712927414026
20
-17.002635509213984
30
0
40
2.4999999999999889
210
0
220
0
230
1
100
AcDbArc
50
249.9586440325869
51
314.9962999191718
0
ARC
5
126
100
AcDbEntity
8
0
100
AcDbCircle
10
17.002635935769074
20
-24.053713251444655
30
0
40
2.4999999997300248
210
0
220
0
230
1
100
AcDbArc
50
-45.000001662188261
51
20.041362065227297
0
LWPOLYLINE
5
127
100
AcDbEntity
8
0
100
AcDbPolyline
90
8
70
1
43
0.0
10
-9.391688193369891
20
10.805901755742992
10
-12.166615274160502
20
13.580828836533602
42
-0.41421356237309503
10
-12.166615274160504
20
15.843570536330549
10
-11.605122153078398
20
16.405063657412654
42
-0.41421356237309442
10
-9.3423804532814501
20
16.405063657412654
10
-6.5674533724908262
20
13.630136576622034
42
-0.41421356237309442
10
-6.5674533724908262
20
11.367394876825099
10
-7.128946493572931
20
10.805901755742994
42
-0.41421356237309631
0
LWPOLYLINE
5
128
100
AcDbEntity
8
0
100
AcDbPolyline
90
6
70
1
43
0.0
10
-4.7675060235326905
20
10.044461285702832
10
4.767506023532782
20
10.044461285702766
42
-0.66817863791929488
10
5.8988768734312425
20
7.3130904358042841
10
1.1313708498984831
20
2.5455844122715829
42
-0.41421356237309587
10
-1.1313708498984676
20
2.5455844122715945
10
-5.8988768734311803
20
7.3130904358043676
42
-0.66817863791930177
0
LWPOLYLINE
5
129
100
AcDbEntity
8
0
100
AcDbPolyline
90
6
70
1
43
0.0
10
7.3130904358043196
20
-5.8988768734312362
42
0.66817863791930254
10
10.044461285702795
20
-4.7675060235327642
10
10.044461285702804
20
4.767506023532702
42
0.66817863791929566
10
7.3130904358043285
20
5.8988768734311918
10
2.5455844122715865
20
1.1313708498984631
42
0.41421356237309476
10
2.5455844122715865
20
-1.1313708498984876
0
LWPOLYLINE
5
130
100
AcDbEntity
8
0
100
AcDbPolyline
90
8
70
1
43
0.0
10
11.085865688445601
20
-7.4089104262755612
10
11.64735880964146
20
-6.847417305079702
42
-0.41421356237309392
10
13.910100509438415
20
-6.8474173050796958
10
21.058933697421658
20
-13.996250493062938
42
-0.41421356237309476
10
21.058933697421658
20
-16.258992192859875
10
20.497440576225788
20
-16.820485314055752
42
-0.41421356237309442
10
18.234698876428851
20
-16.820485314055748
10
11.085865688445605
20
-9.6716521260725106
42
-0.41421356237309592
0
LINE
5
131
100
AcDbEntity
8
0
100
AcDbLine
10
25.821365716791679
20
-18.770516618396776
30
0
11
25.827168984422752
21
-18.764714100251005
31
0
0
ENDSEC
0
SECTION
2
OBJECTS
0
DICTIONARY
5
C
100
AcDbDictionary
3
ACAD_GROUP
350
D
3
ACAD_MLINESTYLE
350
17
0
DICTIONARY
5
D
100
AcDbDictionary
0
DICTIONARY
5
1A
330
C
100
AcDbDictionary
0
DICTIONARY
5
17
100
AcDbDictionary
0
ENDSEC
0
EOF
